<svg width="8" height="9" viewBox="0 0 8 9" fill="none" xmlns="http://www.w3.org/2000/svg">
<path d="M3.58538 2.55665L5.94205 4.91365L3.55105 7.30499C3.44038 7.41566 3.29429 7.48386 3.13838 7.49765L3.07972 7.49999H1.33538C1.25244 7.49999 1.17242 7.46937 1.11066 7.41401C1.0489 7.35865 1.00975 7.28243 1.00072 7.19999L0.998718 7.16332V5.41899C0.998757 5.26247 1.05386 5.11096 1.15438 4.99099L1.19438 4.94765L3.58538 2.55665ZM4.63205 1.50999C4.75002 1.392 4.90794 1.32254 5.07463 1.31532C5.24132 1.3081 5.40465 1.36365 5.53238 1.47099L5.57472 1.50999L6.98905 2.92432C7.10694 3.04227 7.17634 3.20013 7.18356 3.36673C7.19078 3.53334 7.1353 3.69661 7.02805 3.82432L6.98905 3.86699L6.41372 4.44232L4.05705 2.08532L4.63205 1.50999Z" fill="#36D636"/>
</svg>
