<svg width="25" height="25" viewBox="0 0 25 25" fill="none" xmlns="http://www.w3.org/2000/svg">
<path d="M21.828 10.5C21.899 10.5 21.9691 10.5151 22.0338 10.5443C22.0985 10.5736 22.1562 10.6162 22.2032 10.6695C22.2501 10.7227 22.2851 10.7854 22.306 10.8532C22.3268 10.9211 22.3329 10.9926 22.324 11.063L22.307 11.143L19.417 20.787C19.361 20.9737 19.2517 21.1401 19.1025 21.2655C18.9532 21.3909 18.7706 21.47 18.577 21.493L18.46 21.5H4.5C4.10942 21.5009 3.72721 21.3868 3.401 21.172C3.3736 21.0972 3.36468 21.017 3.375 20.938L3.392 20.856L6.286 11.213C6.34189 11.0264 6.45106 10.8602 6.60011 10.7348C6.74915 10.6093 6.93159 10.5302 7.125 10.507L7.244 10.5H21.828ZM10.02 3.5C10.2895 3.49985 10.5562 3.55416 10.8042 3.65967C11.0522 3.76518 11.2762 3.91972 11.463 4.114L11.583 4.251L12.98 6H19.5C20.0046 5.99984 20.4906 6.19041 20.8605 6.5335C21.2305 6.87659 21.4572 7.34685 21.495 7.85L21.5 8V8.5H7.244C6.63087 8.49999 6.03246 8.68785 5.52934 9.03828C5.02622 9.38871 4.64255 9.88489 4.43 10.46L4.37 10.638L2.5 16.87V5.5C2.49984 4.99542 2.69041 4.50943 3.0335 4.13945C3.37659 3.76947 3.84684 3.54284 4.35 3.505L4.5 3.5H10.02Z" fill="#EEA91E"/>
</svg>
