<svg width="25" height="25" viewBox="0 0 25 25" fill="none" xmlns="http://www.w3.org/2000/svg">
<path d="M13.7 3.15C13.3538 2.89036 12.9327 2.75 12.5 2.75C12.0673 2.75 11.6462 2.89036 11.3 3.15L4.3 8.4C4.05161 8.58629 3.85 8.82786 3.71115 9.10557C3.57229 9.38328 3.5 9.68951 3.5 10V19.5C3.5 20.0304 3.71071 20.5391 4.08579 20.9142C4.46086 21.2893 4.96957 21.5 5.5 21.5H9.4C9.69174 21.5 9.97153 21.3841 10.1778 21.1778C10.3841 20.9715 10.5 20.6917 10.5 20.4V15.5C10.5 14.9696 10.7107 14.4609 11.0858 14.0858C11.4609 13.7107 11.9696 13.5 12.5 13.5C13.0304 13.5 13.5391 13.7107 13.9142 14.0858C14.2893 14.4609 14.5 14.9696 14.5 15.5V20.4C14.5 20.6917 14.6159 20.9715 14.8222 21.1778C15.0285 21.3841 15.3083 21.5 15.6 21.5H19.5C20.0304 21.5 20.5391 21.2893 20.9142 20.9142C21.2893 20.5391 21.5 20.0304 21.5 19.5V10C21.5 9.68951 21.4277 9.38328 21.2889 9.10557C21.15 8.82786 20.9484 8.58629 20.7 8.4L13.7 3.15Z" fill="#858C93"/>
</svg>
