<svg width="20" height="20" viewBox="0 0 20 20" fill="none" xmlns="http://www.w3.org/2000/svg">
<g clip-path="url(#clip0_102_556)">
<path d="M13.125 11.875C12.4766 12.9961 11.3883 13.75 10 13.75C8.61172 13.75 7.52344 12.9961 6.875 11.875" stroke="#14191D" stroke-width="1.875" stroke-linecap="round" stroke-linejoin="round"/>
<path d="M10 17.5C14.1421 17.5 17.5 14.1421 17.5 10C17.5 5.85786 14.1421 2.5 10 2.5C5.85786 2.5 2.5 5.85786 2.5 10C2.5 14.1421 5.85786 17.5 10 17.5Z" stroke="#14191D" stroke-width="1.875" stroke-linecap="round" stroke-linejoin="round"/>
<path d="M7.1875 9.6875C7.87786 9.6875 8.4375 9.12786 8.4375 8.4375C8.4375 7.74714 7.87786 7.1875 7.1875 7.1875C6.49714 7.1875 5.9375 7.74714 5.9375 8.4375C5.9375 9.12786 6.49714 9.6875 7.1875 9.6875Z" fill="#14191D"/>
<path d="M12.8125 9.6875C13.5029 9.6875 14.0625 9.12786 14.0625 8.4375C14.0625 7.74714 13.5029 7.1875 12.8125 7.1875C12.1221 7.1875 11.5625 7.74714 11.5625 8.4375C11.5625 9.12786 12.1221 9.6875 12.8125 9.6875Z" fill="#14191D"/>
</g>
<defs>
<clipPath id="clip0_102_556">
<rect width="20" height="20" fill="white"/>
</clipPath>
</defs>
</svg>
