<svg width="20" height="20" viewBox="0 0 20 20" fill="none" xmlns="http://www.w3.org/2000/svg">
<g clip-path="url(#clip0_72_71)">
<path d="M5.62501 13.4375H5.00001C4.11481 13.4383 3.25786 13.1259 2.58082 12.5556C1.90378 11.9854 1.45031 11.194 1.30064 10.3215C1.15097 9.44907 1.31477 8.5518 1.76304 7.78849C2.21131 7.02518 2.91515 6.44506 3.75001 6.15078V5.625C3.75001 4.7962 4.07925 4.00134 4.6653 3.41529C5.25135 2.82924 6.04621 2.5 6.87501 2.5C7.70381 2.5 8.49867 2.82924 9.08472 3.41529C9.67077 4.00134 10 4.7962 10 5.625V13.75" stroke="#858C93" stroke-width="1.875" stroke-linecap="round" stroke-linejoin="round"/>
<path d="M14.375 13.4375H15C15.8852 13.4383 16.7422 13.1259 17.4192 12.5556C18.0962 11.9854 18.5497 11.194 18.6994 10.3215C18.849 9.44907 18.6852 8.5518 18.237 7.78849C17.7887 7.02518 17.0849 6.44506 16.25 6.15078V5.625C16.25 4.7962 15.9208 4.00134 15.3347 3.41529C14.7487 2.82924 13.9538 2.5 13.125 2.5C12.2962 2.5 11.5013 2.82924 10.9153 3.41529C10.3292 4.00134 10 4.7962 10 5.625" stroke="#858C93" stroke-width="1.875" stroke-linecap="round" stroke-linejoin="round"/>
<path d="M15.3125 9.0625C14.7323 9.0625 14.1759 8.83203 13.7657 8.4218C13.3555 8.01156 13.125 7.45516 13.125 6.875V6.5625" stroke="#858C93" stroke-width="1.875" stroke-linecap="round" stroke-linejoin="round"/>
<path d="M4.6875 9.0625C5.26766 9.0625 5.82406 8.83203 6.2343 8.4218C6.64453 8.01156 6.875 7.45516 6.875 6.875V6.5625" stroke="#858C93" stroke-width="1.875" stroke-linecap="round" stroke-linejoin="round"/>
<path d="M11.875 10.8853C11.3587 11.1106 10.9128 11.4713 10.5847 11.9293C10.2566 12.3873 10.0584 12.9254 10.0111 13.4868C9.96372 14.0482 10.069 14.6119 10.3158 15.1184C10.5626 15.6248 10.9417 16.0551 11.4131 16.3637C11.8844 16.6724 12.4304 16.8478 12.9932 16.8716C13.5561 16.8953 14.1149 16.7665 14.6106 16.4987C15.1062 16.2308 15.5203 15.834 15.8088 15.3502C16.0974 14.8663 16.2499 14.3135 16.25 13.7501V13.2243" stroke="#858C93" stroke-width="1.875" stroke-linecap="round" stroke-linejoin="round"/>
<path d="M8.125 10.8853C8.64134 11.1106 9.08716 11.4713 9.41528 11.9293C9.7434 12.3873 9.94161 12.9254 9.98895 13.4868C10.0363 14.0482 9.93098 14.6119 9.68418 15.1184C9.43738 15.6248 9.05826 16.0551 8.58694 16.3637C8.11562 16.6724 7.56964 16.8478 7.00677 16.8716C6.44389 16.8953 5.88506 16.7665 5.38942 16.4987C4.89378 16.2308 4.47975 15.834 4.19116 15.3502C3.90256 14.8663 3.75013 14.3135 3.75 13.7501V13.2243" stroke="#858C93" stroke-width="1.875" stroke-linecap="round" stroke-linejoin="round"/>
</g>
<defs>
<clipPath id="clip0_72_71">
<rect width="20" height="20" fill="white"/>
</clipPath>
</defs>
</svg>
