<svg width="13" height="13" viewBox="0 0 13 13" fill="none" xmlns="http://www.w3.org/2000/svg">
<g clip-path="url(#clip0_1541_621)">
<path fill-rule="evenodd" clip-rule="evenodd" d="M11.4648 3.2257C11.6054 3.36634 11.6844 3.55708 11.6844 3.75595C11.6844 3.95482 11.6054 4.14555 11.4648 4.2862L5.84329 9.9077C5.769 9.98201 5.6808 10.0409 5.58372 10.0812C5.48665 10.1214 5.38261 10.1421 5.27754 10.1421C5.17246 10.1421 5.06842 10.1214 4.97135 10.0812C4.87427 10.0409 4.78607 9.98201 4.71179 9.9077L1.91879 7.1152C1.84715 7.04601 1.79002 6.96326 1.75071 6.87175C1.7114 6.78025 1.69071 6.68183 1.68985 6.58225C1.68898 6.48267 1.70796 6.38391 1.74567 6.29173C1.78338 6.19956 1.83907 6.11582 1.90949 6.0454C1.97991 5.97498 2.06365 5.91929 2.15582 5.88158C2.24799 5.84387 2.34675 5.8249 2.44634 5.82576C2.54592 5.82663 2.64434 5.84732 2.73584 5.88662C2.82734 5.92593 2.9101 5.98307 2.97929 6.0547L5.27729 8.3527L10.4038 3.2257C10.4734 3.156 10.5561 3.10072 10.6472 3.063C10.7382 3.02527 10.8358 3.00586 10.9343 3.00586C11.0328 3.00586 11.1304 3.02527 11.2214 3.063C11.3124 3.10072 11.3951 3.156 11.4648 3.2257Z" fill="white"/>
</g>
<defs>
<clipPath id="clip0_1541_621">
<rect width="12" height="12" fill="white" transform="translate(0.691772 0.669922)"/>
</clipPath>
</defs>
</svg>
