<svg width="24" height="24" viewBox="0 0 24 24" fill="none" xmlns="http://www.w3.org/2000/svg">
<g clip-path="url(#clip0_698_614)">
<path fill-rule="evenodd" clip-rule="evenodd" d="M11.463 2.89101C11.5066 3.08314 11.512 3.28198 11.4787 3.47617C11.4455 3.67036 11.3743 3.85611 11.2693 4.0228C11.1643 4.18948 11.0274 4.33385 10.8666 4.44764C10.7058 4.56144 10.5241 4.64244 10.332 4.68601C10.147 4.72801 9.96498 4.77601 9.78598 4.83201C9.59773 4.89019 9.39987 4.91072 9.20368 4.89243C9.0075 4.87413 8.81684 4.81738 8.64259 4.7254C8.46834 4.63342 8.31392 4.50803 8.18813 4.35637C8.06234 4.20471 7.96766 4.02976 7.90948 3.84151C7.85131 3.65326 7.83078 3.4554 7.84907 3.25922C7.86736 3.06303 7.92412 2.87237 8.0161 2.69813C8.10807 2.52388 8.23347 2.36945 8.38513 2.24366C8.53678 2.11787 8.71173 2.02319 8.89998 1.96501C9.15198 1.88701 9.40798 1.81901 9.66698 1.76001C9.85911 1.71639 10.0579 1.71104 10.2521 1.74427C10.4463 1.7775 10.6321 1.84866 10.7988 1.95369C10.9654 2.05872 11.1098 2.19555 11.2236 2.35638C11.3374 2.51721 11.4184 2.69888 11.462 2.89101M12.536 2.89101C12.6242 2.50316 12.8629 2.16623 13.1995 1.95432C13.5361 1.74241 13.9431 1.67288 14.331 1.76101C19.008 2.82001 22.5 7.00002 22.5 12C22.5 17.799 17.799 22.5 12 22.5C7.00098 22.5 2.82098 19.008 1.75998 14.332C1.67193 13.944 1.74162 13.5369 1.95372 13.2003C2.16583 12.8636 2.50297 12.6251 2.89098 12.537C3.27899 12.449 3.68609 12.5187 4.02272 12.7308C4.35935 12.9429 4.59793 13.28 4.68598 13.668C4.98446 14.9745 5.62758 16.1772 6.54843 17.1509C7.46928 18.1247 8.63422 18.8338 9.92206 19.2047C11.2099 19.5756 12.5736 19.5946 13.8713 19.2598C15.169 18.925 16.3533 18.2486 17.3009 17.3009C18.2486 16.3533 18.925 15.169 19.2598 13.8713C19.5946 12.5736 19.5756 11.2099 19.2047 9.9221C18.8338 8.63425 18.1246 7.46931 17.1509 6.54846C16.1772 5.62761 14.9745 4.9845 13.668 4.68601C13.2801 4.59779 12.9432 4.35912 12.7313 4.02251C12.5194 3.68589 12.4498 3.27889 12.538 2.89101M6.97998 4.38101C7.25023 4.67269 7.3936 5.05973 7.3786 5.45707C7.3636 5.85442 7.19145 6.22955 6.89998 6.50001C6.7617 6.62831 6.62827 6.76173 6.49998 6.90001C6.36603 7.04447 6.20494 7.16113 6.02591 7.24332C5.84688 7.32552 5.65341 7.37165 5.45655 7.37908C5.25969 7.38651 5.06329 7.35509 4.87858 7.28662C4.69386 7.21815 4.52444 7.11396 4.37998 6.98001C4.23553 6.84607 4.11887 6.68498 4.03667 6.50595C3.95447 6.32691 3.90834 6.13344 3.90091 5.93658C3.89349 5.73972 3.9249 5.54333 3.99338 5.35861C4.06185 5.17389 4.16603 5.00447 4.29998 4.86001C4.47998 4.66601 4.66698 4.48001 4.85998 4.30001C5.00443 4.16605 5.17385 4.06185 5.35857 3.99337C5.54329 3.92489 5.73969 3.89346 5.93655 3.90089C6.13342 3.90832 6.32689 3.95446 6.50592 4.03667C6.68496 4.11887 6.84604 4.23655 6.97998 4.38101ZM12 5.50001C12.3978 5.50001 12.7793 5.65805 13.0606 5.93935C13.3419 6.22066 13.5 6.60219 13.5 7.00001V11.379L16.06 13.939C16.2033 14.0773 16.3177 14.2428 16.3964 14.4257C16.4751 14.6087 16.5165 14.8055 16.5184 15.0047C16.5202 15.2039 16.4823 15.4014 16.407 15.5858C16.3316 15.7702 16.2203 15.9377 16.0796 16.0786C15.9388 16.2195 15.7714 16.331 15.5871 16.4065C15.4028 16.482 15.2053 16.52 15.0061 16.5184C14.8069 16.5167 14.6101 16.4755 14.427 16.3969C14.244 16.3184 14.0784 16.2042 13.94 16.061L10.94 13.061C10.8005 12.9217 10.6899 12.7564 10.6144 12.5743C10.5389 12.3922 10.5 12.1971 10.5 12V7.00001C10.5 6.60219 10.658 6.22066 10.9393 5.93935C11.2206 5.65805 11.6022 5.50001 12 5.50001ZM3.83998 7.91001C4.02834 7.96799 4.20343 8.06252 4.35523 8.1882C4.50704 8.31387 4.6326 8.46823 4.72472 8.64245C4.81685 8.81668 4.87374 9.00734 4.89214 9.20356C4.91055 9.39978 4.8901 9.5977 4.83198 9.78602C4.77698 9.96502 4.72798 10.147 4.68598 10.332C4.59793 10.72 4.35935 11.0572 4.02272 11.2693C3.68609 11.4814 3.27899 11.5511 2.89098 11.463C2.50297 11.375 2.16583 11.1364 1.95372 10.7998C1.74162 10.4631 1.67193 10.056 1.75998 9.66802C1.81898 9.40802 1.88698 9.15301 1.96498 8.90101C2.02306 8.71275 2.11767 8.53777 2.24339 8.38607C2.36911 8.23437 2.52348 8.10892 2.69769 8.01689C2.8719 7.92487 3.06254 7.86806 3.2587 7.84972C3.45487 7.83138 3.65273 7.85187 3.84098 7.91001" fill="#36A1D6"/>
</g>
<defs>
<clipPath id="clip0_698_614">
<rect width="24" height="24" fill="white"/>
</clipPath>
</defs>
</svg>
