<svg width="24" height="24" viewBox="0 0 24 24" fill="none" xmlns="http://www.w3.org/2000/svg">
<path fill-rule="evenodd" clip-rule="evenodd" d="M12 0C12.6627 0 13.2 0.537258 13.2 1.2V7.2C13.2 7.7558 13.326 8.28217 13.5509 8.75215L18.7883 3.51473C19.2569 3.0461 20.0167 3.0461 20.4853 3.51473C20.954 3.98336 20.954 4.74315 20.4853 5.21178L15.248 10.4492C15.7179 10.6741 16.2442 10.8 16.8 10.8H22.8C23.4627 10.8 24 11.3373 24 12C24 12.6627 23.4627 13.2 22.8 13.2H16.8C14.8118 13.2 13.2 14.8118 13.2 16.8V22.8C13.2 23.4627 12.6627 24 12 24C11.3373 24 10.8 23.4627 10.8 22.8V16.8C10.8 16.2442 10.6741 15.7179 10.4492 15.248L5.21184 20.4853C4.74321 20.9539 3.98341 20.9539 3.51478 20.4853C3.04615 20.0167 3.04615 19.2569 3.51478 18.7882L8.75215 13.5509C8.28217 13.326 7.7558 13.2 7.2 13.2H1.2C0.537258 13.2 0 12.6627 0 12C0 11.3373 0.537258 10.8 1.2 10.8H7.2C9.18823 10.8 10.8 9.18823 10.8 7.2V1.2C10.8 0.537258 11.3373 0 12 0ZM17.0912 15.3941C16.6226 14.9255 15.8628 14.9255 15.3942 15.3941C14.9255 15.8627 14.9255 16.6225 15.3942 17.0912L18.7883 20.4853C19.2569 20.9539 20.0167 20.9539 20.4853 20.4853C20.954 20.0166 20.954 19.2568 20.4853 18.7882L17.0912 15.3941ZM6.90886 8.60587C7.37749 9.0745 8.13729 9.0745 8.60592 8.60587C9.07455 8.13724 9.07455 7.37744 8.60592 6.90881L5.21179 3.51469C4.74316 3.04606 3.98336 3.04606 3.51473 3.51469C3.0461 3.98332 3.0461 4.74312 3.51473 5.21175L6.90886 8.60587Z" fill="#F0A214"/>
</svg>
