<svg width="82" height="81" viewBox="0 0 82 81" fill="none" xmlns="http://www.w3.org/2000/svg">
<path opacity="0.25" d="M26.6 46.35C26.6913 46.35 26.7823 46.3514 26.8728 46.3542L13.9534 59.2737C11.6688 61.5583 11.6688 65.2623 13.9534 67.5469C16.2379 69.8314 19.9419 69.8314 22.2265 67.5469L35.1458 54.6276C35.1486 54.718 35.15 54.8088 35.15 54.9V72.9C35.15 76.1309 37.7691 78.75 41 78.75C44.2309 78.75 46.85 76.1309 46.85 72.9V54.9C46.85 50.178 50.678 46.35 55.4 46.35H73.4C76.6309 46.35 79.25 43.7309 79.25 40.5C79.25 37.2691 76.6309 34.65 73.4 34.65H55.4C55.3088 34.65 55.218 34.6486 55.1276 34.6458L68.047 21.7263C70.3316 19.4418 70.3316 15.7378 68.047 13.4532C65.7625 11.1686 62.0584 11.1686 59.7739 13.4532L46.8542 26.3728C46.8514 26.2823 46.85 26.1913 46.85 26.1V8.1C46.85 4.86914 44.2309 2.25 41 2.25C37.7691 2.25 35.15 4.86913 35.15 8.1V26.1C35.15 30.822 31.322 34.65 26.6 34.65H8.6C5.36913 34.65 2.75 37.2691 2.75 40.5C2.75 43.7309 5.36914 46.35 8.6 46.35H26.6ZM13.9532 13.4531L15.5442 15.0441L13.9532 13.4531C11.6686 15.7376 11.6686 19.4417 13.9532 21.7262L24.1356 31.9086C26.4202 34.1932 30.1242 34.1932 32.4088 31.9086C34.6933 29.624 34.6933 25.92 32.4088 23.6355L22.2264 13.4531C19.9418 11.1685 16.2378 11.1685 13.9532 13.4531ZM57.8647 49.0913C55.5801 46.8067 51.8761 46.8067 49.5915 49.0913C47.3069 51.3759 47.3069 55.0799 49.5915 57.3644L59.7739 67.5468C62.0584 69.8313 65.7624 69.8313 68.047 67.5468C70.3316 65.2622 70.3316 61.5582 68.047 59.2736L57.8647 49.0913Z" fill="#FCEED6" stroke="#F0A214" stroke-width="4.5" stroke-linecap="round"/>
<path d="M28.9792 28.4791L29.6863 29.1863L28.9792 28.4791C27.9638 29.4945 27.9638 31.1407 28.9792 32.1561L33.5047 36.6816C34.5201 37.697 36.1663 37.697 37.1817 36.6816C38.197 35.6662 38.197 34.02 37.1817 33.0046L32.6562 28.4791C31.6408 27.4638 29.9946 27.4638 28.9792 28.4791ZM43.6 26.1C43.6 24.6641 42.4359 23.5 41 23.5C39.5641 23.5 38.4 24.6641 38.4 26.1V34.1C38.4 36.1987 36.6987 37.9 34.6 37.9H26.6C25.1641 37.9 24 39.0641 24 40.5C24 41.9359 25.1641 43.1 26.6 43.1H34.6C34.6406 43.1 34.681 43.1006 34.7213 43.1019L28.9793 48.8439C27.9639 49.8592 27.9639 51.5055 28.9793 52.5208C29.9946 53.5362 31.6409 53.5362 32.6562 52.5208L38.3981 46.7789C38.3994 46.8191 38.4 46.8595 38.4 46.9V54.9C38.4 56.3359 39.5641 57.5 41 57.5C42.4359 57.5 43.6 56.3359 43.6 54.9V46.9C43.6 44.8013 45.3013 43.1 47.4 43.1H55.4C56.8359 43.1 58 41.9359 58 40.5C58 39.0641 56.8359 37.9 55.4 37.9H47.4C47.3595 37.9 47.3191 37.8994 47.2789 37.8981L53.0209 32.1562C54.0363 31.1408 54.0363 29.4946 53.0209 28.4792C52.0055 27.4638 50.3593 27.4638 49.3439 28.4792L50.0511 29.1863L49.3439 28.4792L43.6019 34.2213C43.6006 34.181 43.6 34.1406 43.6 34.1V26.1ZM48.4954 44.3184C47.48 43.303 45.8338 43.303 44.8185 44.3184C43.8031 45.3337 43.8031 46.9799 44.8185 47.9953L49.3439 52.5208C50.3593 53.5361 52.0055 53.5361 53.0209 52.5208C54.0363 51.5054 54.0363 49.8592 53.0209 48.8438L48.4954 44.3184Z" stroke="#F0A214" stroke-width="2" stroke-linecap="round"/>
</svg>
