<svg width="32" height="32" viewBox="0 0 32 32" fill="none" xmlns="http://www.w3.org/2000/svg">
<path d="M10.5 6C10.5 6.49445 10.3534 6.9778 10.0787 7.38893C9.80397 7.80005 9.41353 8.12048 8.95671 8.3097C8.4999 8.49892 7.99723 8.54843 7.51228 8.45196C7.02732 8.3555 6.58187 8.1174 6.23223 7.76777C5.8826 7.41814 5.6445 6.97268 5.54804 6.48773C5.45157 6.00277 5.50108 5.50011 5.6903 5.04329C5.87952 4.58648 6.19995 4.19603 6.61108 3.92133C7.0222 3.64662 7.50555 3.5 8 3.5C8.66304 3.5 9.29893 3.76339 9.76777 4.23223C10.2366 4.70108 10.5 5.33696 10.5 6ZM16 3.5C15.5055 3.5 15.0222 3.64662 14.6111 3.92133C14.2 4.19603 13.8795 4.58648 13.6903 5.04329C13.5011 5.50011 13.4516 6.00277 13.548 6.48773C13.6445 6.97268 13.8826 7.41814 14.2322 7.76777C14.5819 8.1174 15.0273 8.3555 15.5123 8.45196C15.9972 8.54843 16.4999 8.49892 16.9567 8.3097C17.4135 8.12048 17.804 7.80005 18.0787 7.38893C18.3534 6.9778 18.5 6.49445 18.5 6C18.5 5.33696 18.2366 4.70108 17.7678 4.23223C17.2989 3.76339 16.663 3.5 16 3.5ZM24 8.5C24.4945 8.5 24.9778 8.35338 25.3889 8.07868C25.8001 7.80397 26.1205 7.41352 26.3097 6.95671C26.4989 6.49989 26.5484 5.99723 26.452 5.51228C26.3555 5.02732 26.1174 4.58187 25.7678 4.23223C25.4181 3.8826 24.9727 3.6445 24.4877 3.54804C24.0028 3.45157 23.5001 3.50108 23.0433 3.6903C22.5865 3.87952 22.196 4.19995 21.9213 4.61108C21.6466 5.0222 21.5 5.50555 21.5 6C21.5 6.66304 21.7634 7.29893 22.2322 7.76777C22.7011 8.23661 23.337 8.5 24 8.5ZM8 10.5C7.50555 10.5 7.0222 10.6466 6.61108 10.9213C6.19995 11.196 5.87952 11.5865 5.6903 12.0433C5.50108 12.5001 5.45157 13.0028 5.54804 13.4877C5.6445 13.9727 5.8826 14.4181 6.23223 14.7678C6.58187 15.1174 7.02732 15.3555 7.51228 15.452C7.99723 15.5484 8.4999 15.4989 8.95671 15.3097C9.41353 15.1205 9.80397 14.8 10.0787 14.3889C10.3534 13.9778 10.5 13.4945 10.5 13C10.5 12.337 10.2366 11.7011 9.76777 11.2322C9.29893 10.7634 8.66304 10.5 8 10.5ZM16 10.5C15.5055 10.5 15.0222 10.6466 14.6111 10.9213C14.2 11.196 13.8795 11.5865 13.6903 12.0433C13.5011 12.5001 13.4516 13.0028 13.548 13.4877C13.6445 13.9727 13.8826 14.4181 14.2322 14.7678C14.5819 15.1174 15.0273 15.3555 15.5123 15.452C15.9972 15.5484 16.4999 15.4989 16.9567 15.3097C17.4135 15.1205 17.804 14.8 18.0787 14.3889C18.3534 13.9778 18.5 13.4945 18.5 13C18.5 12.337 18.2366 11.7011 17.7678 11.2322C17.2989 10.7634 16.663 10.5 16 10.5ZM24 10.5C23.5055 10.5 23.0222 10.6466 22.6111 10.9213C22.2 11.196 21.8795 11.5865 21.6903 12.0433C21.5011 12.5001 21.4516 13.0028 21.548 13.4877C21.6445 13.9727 21.8826 14.4181 22.2322 14.7678C22.5819 15.1174 23.0273 15.3555 23.5123 15.452C23.9972 15.5484 24.4999 15.4989 24.9567 15.3097C25.4135 15.1205 25.804 14.8 26.0787 14.3889C26.3534 13.9778 26.5 13.4945 26.5 13C26.5 12.337 26.2366 11.7011 25.7678 11.2322C25.2989 10.7634 24.663 10.5 24 10.5ZM8 17.5C7.50555 17.5 7.0222 17.6466 6.61108 17.9213C6.19995 18.196 5.87952 18.5865 5.6903 19.0433C5.50108 19.5001 5.45157 20.0028 5.54804 20.4877C5.6445 20.9727 5.8826 21.4181 6.23223 21.7678C6.58187 22.1174 7.02732 22.3555 7.51228 22.452C7.99723 22.5484 8.4999 22.4989 8.95671 22.3097C9.41353 22.1205 9.80397 21.8001 10.0787 21.3889C10.3534 20.9778 10.5 20.4945 10.5 20C10.5 19.337 10.2366 18.7011 9.76777 18.2322C9.29893 17.7634 8.66304 17.5 8 17.5ZM16 17.5C15.5055 17.5 15.0222 17.6466 14.6111 17.9213C14.2 18.196 13.8795 18.5865 13.6903 19.0433C13.5011 19.5001 13.4516 20.0028 13.548 20.4877C13.6445 20.9727 13.8826 21.4181 14.2322 21.7678C14.5819 22.1174 15.0273 22.3555 15.5123 22.452C15.9972 22.5484 16.4999 22.4989 16.9567 22.3097C17.4135 22.1205 17.804 21.8001 18.0787 21.3889C18.3534 20.9778 18.5 20.4945 18.5 20C18.5 19.337 18.2366 18.7011 17.7678 18.2322C17.2989 17.7634 16.663 17.5 16 17.5ZM16 24.5C15.5055 24.5 15.0222 24.6466 14.6111 24.9213C14.2 25.196 13.8795 25.5865 13.6903 26.0433C13.5011 26.5001 13.4516 27.0028 13.548 27.4877C13.6445 27.9727 13.8826 28.4181 14.2322 28.7678C14.5819 29.1174 15.0273 29.3555 15.5123 29.452C15.9972 29.5484 16.4999 29.4989 16.9567 29.3097C17.4135 29.1205 17.804 28.8001 18.0787 28.3889C18.3534 27.9778 18.5 27.4945 18.5 27C18.5 26.337 18.2366 25.7011 17.7678 25.2322C17.2989 24.7634 16.663 24.5 16 24.5ZM24 17.5C23.5055 17.5 23.0222 17.6466 22.6111 17.9213C22.2 18.196 21.8795 18.5865 21.6903 19.0433C21.5011 19.5001 21.4516 20.0028 21.548 20.4877C21.6445 20.9727 21.8826 21.4181 22.2322 21.7678C22.5819 22.1174 23.0273 22.3555 23.5123 22.452C23.9972 22.5484 24.4999 22.4989 24.9567 22.3097C25.4135 22.1205 25.804 21.8001 26.0787 21.3889C26.3534 20.9778 26.5 20.4945 26.5 20C26.5 19.337 26.2366 18.7011 25.7678 18.2322C25.2989 17.7634 24.663 17.5 24 17.5Z" fill="black"/>
</svg>
