<svg width="16" height="16" viewBox="0 0 16 16" fill="none" xmlns="http://www.w3.org/2000/svg">
<g clip-path="url(#clip0_700_642)">
<path d="M7.33333 4C7.51014 4 7.67971 4.07024 7.80474 4.19526C7.92976 4.32029 8 4.48986 8 4.66667C8 4.84348 7.92976 5.01305 7.80474 5.13807C7.67971 5.2631 7.51014 5.33333 7.33333 5.33333H3.33333V12.6667H10.6667V8.66667C10.6667 8.48986 10.7369 8.32029 10.8619 8.19526C10.987 8.07024 11.1565 8 11.3333 8C11.5101 8 11.6797 8.07024 11.8047 8.19526C11.9298 8.32029 12 8.48986 12 8.66667V12.6667C12 13.0203 11.8595 13.3594 11.6095 13.6095C11.3594 13.8595 11.0203 14 10.6667 14H3.33333C2.97971 14 2.64057 13.8595 2.39052 13.6095C2.14048 13.3594 2 13.0203 2 12.6667V5.33333C2 4.97971 2.14048 4.64057 2.39052 4.39052C2.64057 4.14048 2.97971 4 3.33333 4H7.33333ZM13.3333 2C13.5101 2 13.6797 2.07024 13.8047 2.19526C13.9298 2.32029 14 2.48986 14 2.66667V6C14 6.17681 13.9298 6.34638 13.8047 6.4714C13.6797 6.59643 13.5101 6.66667 13.3333 6.66667C13.1565 6.66667 12.987 6.59643 12.8619 6.4714C12.7369 6.34638 12.6667 6.17681 12.6667 6V4.276L7.138 9.80467C7.01227 9.92611 6.84386 9.9933 6.66907 9.99178C6.49427 9.99026 6.32706 9.92015 6.20345 9.79655C6.07985 9.67294 6.00974 9.50573 6.00822 9.33093C6.0067 9.15614 6.07389 8.98774 6.19533 8.862L11.724 3.33333H10C9.82319 3.33333 9.65362 3.2631 9.5286 3.13807C9.40357 3.01305 9.33333 2.84348 9.33333 2.66667C9.33333 2.48986 9.40357 2.32029 9.5286 2.19526C9.65362 2.07024 9.82319 2 10 2H13.3333Z" fill="#858C93"/>
</g>
<defs>
<clipPath id="clip0_700_642">
<rect width="16" height="16" fill="white"/>
</clipPath>
</defs>
</svg>
