<svg width="32" height="32" viewBox="0 0 32 32" fill="none" xmlns="http://www.w3.org/2000/svg">
<path d="M18.999 11.5C19.8891 11.5 20.7591 11.2361 21.4991 10.7416C22.2391 10.2471 22.8159 9.54434 23.1565 8.72208C23.4971 7.89981 23.5862 6.99501 23.4126 6.1221C23.2389 5.24918 22.8104 4.44736 22.181 3.81802C21.5517 3.18868 20.7499 2.7601 19.8769 2.58647C19.004 2.41283 18.0992 2.50195 17.277 2.84254C16.4547 3.18314 15.7519 3.75991 15.2574 4.49994C14.763 5.23996 14.499 6.10999 14.499 7C14.499 8.19348 14.9731 9.33807 15.8171 10.182C16.661 11.0259 17.8056 11.5 18.999 11.5ZM18.999 5.5C19.2957 5.5 19.5857 5.58798 19.8324 5.7528C20.0791 5.91762 20.2713 6.15189 20.3849 6.42598C20.4984 6.70007 20.5281 7.00167 20.4702 7.29264C20.4123 7.58361 20.2695 7.85088 20.0597 8.06066C19.8499 8.27044 19.5826 8.4133 19.2917 8.47118C19.0007 8.52906 18.6991 8.49935 18.425 8.38582C18.1509 8.27229 17.9167 8.08003 17.7518 7.83336C17.587 7.58668 17.499 7.29667 17.499 7C17.499 6.60218 17.6571 6.22065 17.9384 5.93934C18.2197 5.65804 18.6012 5.5 18.999 5.5ZM28.499 17.175C28.4991 17.4622 28.4166 17.7434 28.2615 17.9852C28.1064 18.2269 27.8852 18.4191 27.624 18.5388C26.7618 18.8439 25.8549 19.0036 24.9403 19.0113C23.1903 19.0113 20.659 18.5338 17.469 16.6363C17.0994 17.5386 16.6706 18.4155 16.1853 19.2613C19.139 20.3538 23.499 22.975 23.499 29C23.499 29.3978 23.341 29.7794 23.0597 30.0607C22.7784 30.342 22.3969 30.5 21.999 30.5C21.6012 30.5 21.2197 30.342 20.9384 30.0607C20.6571 29.7794 20.499 29.3978 20.499 29C20.499 26.6638 19.6303 24.8675 17.8415 23.5075C16.6965 22.6325 15.3978 22.1325 14.4128 21.84C14.3115 21.965 14.2078 22.09 14.1003 22.2088C11.6003 25.0675 8.49779 26.5538 5.06904 26.5538C4.66202 26.5537 4.25526 26.5333 3.85029 26.4925C3.65318 26.4743 3.46163 26.4172 3.28667 26.3247C3.11172 26.2321 2.95681 26.1058 2.8309 25.953C2.70498 25.8003 2.61054 25.6242 2.55301 25.4348C2.49549 25.2454 2.47603 25.0464 2.49574 24.8495C2.51545 24.6525 2.57395 24.4614 2.66787 24.2872C2.76179 24.1129 2.88927 23.959 3.04295 23.8342C3.19664 23.7095 3.3735 23.6164 3.56334 23.5603C3.75318 23.5042 3.95223 23.4863 4.14904 23.5075C10.6865 24.16 13.834 17.7675 14.8728 15.0388C10.599 12.8075 7.96654 14.8475 7.93779 14.875C7.6262 15.1091 7.23575 15.2127 6.8491 15.1639C6.46245 15.1151 6.10996 14.9178 5.86627 14.6137C5.62258 14.3095 5.50682 13.9225 5.5435 13.5345C5.58018 13.1465 5.76642 12.7881 6.06279 12.535C6.25904 12.375 10.999 8.68 17.8428 13.3275C23.2303 16.9913 26.3553 15.8175 26.4053 15.7975C26.6333 15.6992 26.8821 15.6591 27.1295 15.6807C27.3768 15.7023 27.6149 15.7849 27.8224 15.9212C28.03 16.0575 28.2004 16.2431 28.3185 16.4615C28.4366 16.6799 28.4986 16.9242 28.499 17.1725V17.175Z" fill="black"/>
</svg>
