<svg width="24" height="24" viewBox="0 0 24 24" fill="none" xmlns="http://www.w3.org/2000/svg">
<g clip-path="url(#clip0_700_658)">
<path fill-rule="evenodd" clip-rule="evenodd" d="M13 2C13.7408 1.99879 14.4558 2.2717 15.0074 2.76617C15.559 3.26064 15.9081 3.9417 15.9876 4.6782C16.067 5.4147 15.8712 6.15456 15.4378 6.7553C15.0043 7.35604 14.364 7.77518 13.64 7.932L13.469 7.964L14.905 10.261L16.629 9.571C16.8661 9.47528 17.1309 9.47403 17.3689 9.56752C17.607 9.66101 17.8001 9.84213 17.9087 10.0737C18.0173 10.3052 18.0331 10.5695 17.9528 10.8123C17.8725 11.0551 17.7022 11.2579 17.477 11.379L17.371 11.429L15.648 12.118C15.2396 12.2814 14.7886 12.3056 14.3651 12.1868C13.9415 12.0681 13.5689 11.8129 13.305 11.461L13.209 11.321L13.046 11.061L12.44 13.485C12.3876 13.6959 12.3011 13.8969 12.184 14.08L12.094 14.21L13.747 15.438C14.1413 15.731 14.4139 16.1589 14.513 16.64L14.542 16.822L14.895 20H15C15.2549 20.0003 15.5 20.0979 15.6854 20.2729C15.8707 20.4478 15.9822 20.687 15.9972 20.9414C16.0121 21.1958 15.9293 21.4464 15.7657 21.6418C15.6021 21.8373 15.3701 21.9629 15.117 21.993L15 22H14.09C13.8397 22.0001 13.5969 21.9148 13.4017 21.7583C13.2064 21.6017 13.0704 21.3833 13.016 21.139L12.996 21.022L12.554 17.043L9.404 14.703C9.34795 14.6618 9.29634 14.6149 9.24999 14.563C8.97222 14.3406 8.75879 14.0481 8.6317 13.7157C8.50462 13.3833 8.46847 13.023 8.527 12.672L8.56 12.515L9.35399 9.338L7.78399 9.808L6.94899 12.316C6.8688 12.5587 6.69874 12.7614 6.47373 12.8826C6.24872 13.0038 5.98585 13.0343 5.7391 12.9677C5.49234 12.9012 5.28044 12.7427 5.14689 12.5248C5.01334 12.3068 4.96829 12.0461 5.02099 11.796L5.05099 11.684L5.88699 9.176C5.97987 8.89772 6.13282 8.64327 6.33502 8.43071C6.53722 8.21814 6.7837 8.05267 7.05699 7.946L7.20999 7.893L10.647 6.862C10.297 6.4199 10.0787 5.88812 10.0172 5.32764C9.95558 4.76716 10.0532 4.20067 10.2988 3.69313C10.5445 3.18559 10.9281 2.75755 11.4059 2.45808C11.8837 2.15862 12.4361 1.99986 13 2ZM8.19999 15.4C8.35252 15.1963 8.57697 15.0584 8.82761 15.0145C9.07825 14.9705 9.33623 15.0237 9.549 15.1633C9.76177 15.3029 9.91331 15.5183 9.97277 15.7658C10.0322 16.0132 9.99511 16.274 9.869 16.495L9.79999 16.6L8.58399 18.222C8.36922 18.5086 8.059 18.7088 7.70943 18.7866C7.35986 18.8644 6.994 18.8145 6.67799 18.646L6.55199 18.57L4.62199 17.283C4.43053 17.435 4.19001 17.5116 3.94591 17.4983C3.70181 17.485 3.47102 17.3828 3.29718 17.2109C3.12333 17.039 3.01847 16.8094 3.00241 16.5655C2.98634 16.3216 3.06019 16.0802 3.20999 15.887L3.29299 15.793L3.78699 15.299C3.93638 15.1497 4.12883 15.0509 4.33728 15.0166C4.54572 14.9824 4.75966 15.0143 4.94899 15.108L5.06199 15.172L7.26799 16.643L8.19999 15.4ZM13 4C12.7348 4 12.4804 4.10536 12.2929 4.2929C12.1054 4.48043 12 4.73479 12 5C12 5.26522 12.1054 5.51957 12.2929 5.70711C12.4804 5.89465 12.7348 6 13 6C13.2652 6 13.5196 5.89465 13.7071 5.70711C13.8946 5.51957 14 5.26522 14 5C14 4.73479 13.8946 4.48043 13.7071 4.2929C13.5196 4.10536 13.2652 4 13 4Z" fill="#14191D"/>
</g>
<defs>
<clipPath id="clip0_700_658">
<rect width="24" height="24" fill="white"/>
</clipPath>
</defs>
</svg>
