<svg width="24" height="25" viewBox="0 0 24 25" fill="none" xmlns="http://www.w3.org/2000/svg">
<g clip-path="url(#clip0_698_606)">
<path d="M20 9.99999C20.3729 10 20.7324 10.1389 21.0084 10.3896C21.2844 10.6403 21.4572 10.9848 21.493 11.356L21.5 11.5V15.5C21.5 16.6568 21.0545 17.7691 20.2561 18.6061C19.4576 19.4431 18.3675 19.9405 17.212 19.995L17 20H8.56L8.54 20.312C8.53648 20.3587 8.53282 20.4053 8.529 20.452C8.473 21.171 7.78 21.622 7.198 21.317L6.884 21.149L6.516 20.94C6.4481 20.9007 6.38043 20.8611 6.313 20.821L5.874 20.552C5.56131 20.3544 5.25388 20.1487 4.952 19.935L4.567 19.655L4.244 19.41C4.19815 19.3746 4.15248 19.3389 4.107 19.303C3.618 18.913 3.637 18.108 4.157 17.697L4.293 17.59L4.613 17.348L4.993 17.073L5.431 16.772C5.66602 16.615 5.90406 16.4627 6.145 16.315L6.571 16.06L6.946 15.849L7.262 15.679C7.839 15.379 8.469 15.764 8.524 16.435L8.562 17H17C17.3729 17 17.7324 16.8611 18.0084 16.6104C18.2844 16.3597 18.4572 16.0151 18.493 15.644L18.5 15.5V11.5C18.5 11.1022 18.658 10.7206 18.9393 10.4393C19.2206 10.158 19.6022 9.99999 20 9.99999ZM16.802 3.68299L17.116 3.85099L17.484 4.05999C17.55 4.09799 17.618 4.13699 17.687 4.17899L18.126 4.44799C18.4387 4.64552 18.7461 4.85126 19.048 5.06499L19.433 5.34499L19.756 5.58999L19.893 5.69699C20.382 6.08699 20.363 6.89199 19.843 7.30299L19.707 7.40999L19.387 7.65199L19.007 7.92699C18.6312 8.19191 18.247 8.44471 17.855 8.68499L17.429 8.93999L17.054 9.15099L16.738 9.32099C16.161 9.62099 15.531 9.23599 15.477 8.56499L15.437 7.99999H7C6.60218 7.99999 6.22064 8.15802 5.93934 8.43933C5.65804 8.72063 5.5 9.10216 5.5 9.49999V13.5C5.5 13.8978 5.34196 14.2793 5.06066 14.5606C4.77936 14.842 4.39782 15 4 15C3.60218 15 3.22064 14.842 2.93934 14.5606C2.65804 14.2793 2.5 13.8978 2.5 13.5V9.49999C2.5 8.30651 2.97411 7.16192 3.81802 6.31801C4.66193 5.47409 5.80653 4.99999 7 4.99999H15.44L15.471 4.54799C15.527 3.82899 16.22 3.37799 16.802 3.68299Z" fill="#F0A214"/>
</g>
<defs>
<clipPath id="clip0_698_606">
<rect width="24" height="24" fill="white" transform="translate(0 0.5)"/>
</clipPath>
</defs>
</svg>
