<svg width="25" height="24" viewBox="0 0 25 24" fill="none" xmlns="http://www.w3.org/2000/svg">
<path d="M21.6145 4.49998V8.99998C21.6145 9.29834 21.496 9.58449 21.285 9.79547C21.074 10.0064 20.7879 10.125 20.4895 10.125H15.9895C15.6911 10.125 15.405 10.0064 15.194 9.79547C14.983 9.58449 14.8645 9.29834 14.8645 8.99998C14.8645 8.70161 14.983 8.41546 15.194 8.20448C15.405 7.9935 15.6911 7.87498 15.9895 7.87498H17.7708L17.0395 7.14373C15.7156 5.81324 13.9177 5.06266 12.0408 5.05685H12.0004C10.1403 5.05278 8.35325 5.78125 7.02606 7.08466C6.81273 7.29327 6.52527 7.40859 6.22691 7.40525C5.92855 7.40191 5.64374 7.28018 5.43513 7.06685C5.22652 6.85352 5.1112 6.56605 5.11454 6.26769C5.11788 5.96933 5.23961 5.68452 5.45294 5.47591C7.20064 3.75978 9.55385 2.80091 12.0033 2.80685H12.052C14.523 2.81359 16.8902 3.80128 18.6333 5.55279L19.3645 6.28123V4.49998C19.3645 4.20161 19.483 3.91546 19.694 3.70448C19.905 3.4935 20.1911 3.37498 20.4895 3.37498C20.7879 3.37498 21.074 3.4935 21.285 3.70448C21.496 3.91546 21.6145 4.20161 21.6145 4.49998ZM17.4529 16.9153C16.1251 18.2194 14.3369 18.9479 12.4758 18.9431H12.4354C10.5585 18.9373 8.76061 18.1867 7.43669 16.8562L6.70825 16.125H8.4895C8.78787 16.125 9.07402 16.0064 9.285 15.7955C9.49598 15.5845 9.6145 15.2983 9.6145 15C9.6145 14.7016 9.49598 14.4155 9.285 14.2045C9.07402 13.9935 8.78787 13.875 8.4895 13.875H3.9895C3.69113 13.875 3.40499 13.9935 3.19401 14.2045C2.98303 14.4155 2.8645 14.7016 2.8645 15V19.5C2.8645 19.7983 2.98303 20.0845 3.19401 20.2955C3.40499 20.5064 3.69113 20.625 3.9895 20.625C4.28787 20.625 4.57402 20.5064 4.785 20.2955C4.99598 20.0845 5.1145 19.7983 5.1145 19.5V17.7187L5.84575 18.45C7.58924 20.2005 9.95639 21.1871 12.427 21.1931H12.4795C14.9289 21.199 17.2821 20.2402 19.0298 18.524C19.1354 18.4207 19.2197 18.2977 19.2778 18.1618C19.3358 18.0259 19.3666 17.88 19.3682 17.7323C19.3699 17.5845 19.3424 17.4379 19.2874 17.3008C19.2324 17.1637 19.1509 17.0387 19.0476 16.9331C18.9443 16.8275 18.8212 16.7432 18.6854 16.6852C18.5495 16.6271 18.4036 16.5964 18.2558 16.5947C18.1081 16.593 17.9615 16.6205 17.8244 16.6755C17.6873 16.7305 17.5623 16.812 17.4567 16.9153H17.4529Z" fill="#F0A214"/>
</svg>
