<svg width="24" height="24" viewBox="0 0 24 24" fill="none" xmlns="http://www.w3.org/2000/svg">
<g clip-path="url(#clip0_709_671)">
<path d="M18.42 2.797L18.806 2.853C19.406 2.948 20.078 3.107 20.491 3.52C20.905 3.934 21.064 4.606 21.159 5.206L21.215 5.591C21.341 6.501 21.374 7.694 21.159 9.018C20.735 11.631 19.344 14.748 15.851 17.163C15.8349 17.3415 15.8293 17.5208 15.834 17.7L15.851 18.243C15.861 18.605 15.855 18.966 15.755 19.313C15.565 19.973 14.888 20.408 14.255 20.72L13.945 20.867L13.545 21.043L13.272 21.153C12.565 21.423 11.712 21.612 11.154 21.053C10.901 20.8 10.784 20.456 10.69 20.112L10.644 19.94C10.484 19.333 10.303 18.73 10.077 18.146C10.0146 18.2218 9.94851 18.2946 9.87903 18.364C9.33403 18.908 8.59503 19.182 7.85603 19.394L7.36503 19.529L6.87503 19.659L6.39703 19.779L5.96503 19.879L5.44803 19.989L5.12503 20.052C4.9639 20.0821 4.79787 20.0724 4.6413 20.0239C4.48473 19.9754 4.34233 19.8895 4.22643 19.7736C4.11053 19.6577 4.0246 19.5153 3.9761 19.3587C3.92759 19.2022 3.91796 19.0361 3.94803 18.875L4.05903 18.324L4.18803 17.746L4.31203 17.236L4.53703 16.391C4.76003 15.571 5.03103 14.726 5.63703 14.121L5.73603 14.026L4.97303 13.752L4.20603 13.488C3.75703 13.34 3.28503 13.184 2.95903 12.858C2.36303 12.262 2.61603 11.332 2.91303 10.601L3.07903 10.214L3.21603 9.913C3.53303 9.239 3.98303 8.463 4.69903 8.257C5.04603 8.157 5.40603 8.151 5.76903 8.16L6.31203 8.178C6.49203 8.181 6.67203 8.178 6.84903 8.161C9.26303 4.668 12.381 3.277 14.994 2.853C16.1271 2.6662 17.2815 2.64734 18.42 2.797ZM15.314 4.827C13.116 5.184 10.445 6.361 8.36103 9.496C8.10803 9.876 7.68103 10.057 7.24603 10.126C7.00003 10.166 6.75203 10.176 6.50303 10.176L5.75603 10.165C5.63203 10.165 5.50703 10.165 5.38303 10.171C5.07903 10.575 4.86703 11.055 4.70803 11.532L6.20803 12.077L6.82503 12.31C7.95303 12.752 9.04503 13.287 9.88503 14.127C11.3 15.542 12.019 17.393 12.539 19.284C12.995 19.124 13.453 18.92 13.841 18.629L13.847 18.256L13.836 17.51C13.836 17.262 13.846 17.014 13.886 16.766C13.954 16.331 14.136 15.904 14.516 15.651C17.651 13.567 18.828 10.896 19.185 8.698C19.365 7.588 19.335 6.596 19.234 5.865C19.1953 5.56172 19.1307 5.26231 19.041 4.97C18.7487 4.88067 18.4493 4.81643 18.146 4.778C17.2047 4.65597 16.2505 4.67181 15.314 4.827ZM7.05003 15.535C6.70003 15.958 6.53703 16.513 6.40603 17.063L6.29803 17.531L6.24303 17.757L6.93703 17.594C7.48703 17.464 8.04303 17.299 8.46503 16.949C8.65254 16.7614 8.75783 16.5069 8.75773 16.2416C8.75764 15.9764 8.65217 15.722 8.46453 15.5345C8.27689 15.347 8.02245 15.2417 7.75718 15.2418C7.49191 15.2419 7.23754 15.3474 7.05003 15.535ZM12.707 8.465C12.8927 8.27925 13.1132 8.13188 13.3558 8.03133C13.5985 7.93077 13.8585 7.879 14.1212 7.87895C14.3838 7.8789 14.6439 7.93059 14.8866 8.03106C15.1293 8.13153 15.3498 8.27881 15.5355 8.4645C15.7213 8.65019 15.8686 8.87065 15.9692 9.11329C16.0698 9.35593 16.1215 9.616 16.1216 9.87865C16.1216 10.1413 16.0699 10.4014 15.9695 10.6441C15.869 10.8867 15.7217 11.1072 15.536 11.293C15.1609 11.6681 14.6521 11.8789 14.1215 11.8789C13.591 11.8789 13.0822 11.6681 12.707 11.293C12.3319 10.9179 12.1211 10.409 12.1211 9.8785C12.1211 9.34796 12.3319 8.83915 12.707 8.464V8.465Z" fill="white"/>
</g>
<defs>
<clipPath id="clip0_709_671">
<rect width="24" height="24" fill="white"/>
</clipPath>
</defs>
</svg>
