<svg width="16" height="16" viewBox="0 0 16 16" fill="none" xmlns="http://www.w3.org/2000/svg">
<path fill-rule="evenodd" clip-rule="evenodd" d="M7 1.33398C6.0964 1.33406 5.20591 1.55023 4.40284 1.96445C3.59977 2.37867 2.9074 2.97893 2.38349 3.71515C1.85959 4.45138 1.51934 5.30222 1.39114 6.19668C1.26294 7.09114 1.3505 8.0033 1.64652 8.85704C1.94254 9.71078 2.43843 10.4814 3.09283 11.1045C3.74722 11.7276 4.54114 12.1852 5.40834 12.4391C6.27555 12.6929 7.1909 12.7358 8.07801 12.5639C8.96513 12.3921 9.7983 12.0106 10.508 11.4513L12.9427 13.886C13.0684 14.0074 13.2368 14.0746 13.4116 14.0731C13.5864 14.0716 13.7536 14.0015 13.8772 13.8779C14.0008 13.7543 14.0709 13.5871 14.0725 13.4123C14.074 13.2375 14.0068 13.0691 13.8853 12.9433L11.4507 10.5087C12.1093 9.67306 12.5194 8.66892 12.6341 7.61114C12.7487 6.55335 12.5632 5.48466 12.0988 4.52738C11.6344 3.5701 10.9099 2.76289 10.0082 2.19814C9.10648 1.63339 8.06398 1.33391 7 1.33398ZM2.66667 7.00065C2.66667 5.85138 3.12321 4.74918 3.93587 3.93652C4.74853 3.12386 5.85073 2.66732 7 2.66732C8.14927 2.66732 9.25147 3.12386 10.0641 3.93652C10.8768 4.74918 11.3333 5.85138 11.3333 7.00065C11.3333 8.14992 10.8768 9.25212 10.0641 10.0648C9.25147 10.8774 8.14927 11.334 7 11.334C5.85073 11.334 4.74853 10.8774 3.93587 10.0648C3.12321 9.25212 2.66667 8.14992 2.66667 7.00065Z" fill="#858C93"/>
</svg>
