<svg width="32" height="33" viewBox="0 0 32 33" fill="none" xmlns="http://www.w3.org/2000/svg">
<path fill-rule="evenodd" clip-rule="evenodd" d="M21.9999 16.4994C23.5667 16.4994 25.0713 17.1123 26.1922 18.2071C27.3131 19.3018 27.9612 20.7916 27.9981 22.358C28.0351 23.9243 27.4578 25.443 26.3898 26.5894C25.3217 27.7357 23.8476 28.4188 22.2826 28.4927L21.9999 28.4994H9.9999C8.4331 28.4993 6.92847 27.8864 5.80761 26.7916C4.68674 25.6969 4.03858 24.2071 4.00167 22.6407C3.96475 21.0744 4.54201 19.5557 5.61005 18.4093C6.67809 17.263 8.15218 16.5799 9.71724 16.506L9.9999 16.4994H21.9999ZM9.33324 19.8327C8.62599 19.8327 7.94772 20.1136 7.44762 20.6137C6.94752 21.1138 6.66657 21.7921 6.66657 22.4994C6.66657 23.2066 6.94752 23.8849 7.44762 24.385C7.94772 24.8851 8.62599 25.166 9.33324 25.166C10.0405 25.166 10.7188 24.8851 11.2189 24.385C11.719 23.8849 11.9999 23.2066 11.9999 22.4994C11.9999 21.7921 11.719 21.1138 11.2189 20.6137C10.7188 20.1136 10.0405 19.8327 9.33324 19.8327ZM21.9999 3.16602C23.5667 3.16604 25.0713 3.77894 26.1922 4.87372C27.3131 5.96849 27.9612 7.45828 27.9981 9.02464C28.0351 10.591 27.4578 12.1097 26.3898 13.256C25.3217 14.4024 23.8476 15.0855 22.2826 15.1594L21.9999 15.166H9.9999C8.4331 15.166 6.92847 14.5531 5.80761 13.4583C4.68674 12.3635 4.03858 10.8738 4.00167 9.30739C3.96475 7.74102 4.54201 6.22236 5.61005 5.07599C6.67809 3.92963 8.15218 3.24652 9.71724 3.17268L9.9999 3.16602H21.9999ZM22.6666 6.49935C21.9593 6.49935 21.2811 6.7803 20.781 7.2804C20.2809 7.7805 19.9999 8.45877 19.9999 9.16602C19.9999 9.87326 20.2809 10.5515 20.781 11.0516C21.2811 11.5517 21.9593 11.8327 22.6666 11.8327C23.3738 11.8327 24.0521 11.5517 24.5522 11.0516C25.0523 10.5515 25.3332 9.87326 25.3332 9.16602C25.3332 8.45877 25.0523 7.7805 24.5522 7.2804C24.0521 6.7803 23.3738 6.49935 22.6666 6.49935Z" fill="#36A1D6"/>
</svg>
