<svg width="21" height="21" viewBox="0 0 21 21" fill="none" xmlns="http://www.w3.org/2000/svg">
<path fill-rule="evenodd" clip-rule="evenodd" d="M7.41074 11.2449C7.25451 11.0887 7.16675 10.8767 7.16675 10.6558C7.16675 10.4348 7.25451 10.2229 7.41074 10.0666L12.1249 5.35243C12.2018 5.27284 12.2937 5.20935 12.3954 5.16568C12.4971 5.122 12.6064 5.09902 12.7171 5.09805C12.8277 5.09709 12.9375 5.11818 13.0399 5.16008C13.1423 5.20198 13.2353 5.26386 13.3136 5.3421C13.3918 5.42034 13.4537 5.51339 13.4956 5.6158C13.5375 5.71821 13.5586 5.82795 13.5576 5.9386C13.5567 6.04925 13.5337 6.1586 13.49 6.26027C13.4463 6.36194 13.3828 6.45389 13.3032 6.53076L9.17824 10.6558L13.3032 14.7808C13.455 14.9379 13.539 15.1484 13.5371 15.3669C13.5352 15.5854 13.4476 15.7944 13.2931 15.9489C13.1386 16.1035 12.9296 16.1911 12.7111 16.193C12.4926 16.1949 12.2821 16.1109 12.1249 15.9591L7.41074 11.2449Z" fill="#858C93"/>
</svg>
