<svg width="482" height="482" viewBox="0 0 482 482" fill="none" xmlns="http://www.w3.org/2000/svg">
<path d="M265.5 25C265.5 11.469 254.531 0.5 241 0.5C227.469 0.5 216.5 11.469 216.5 25V145C216.5 184.488 184.488 216.5 145 216.5H25C11.469 216.5 0.5 227.469 0.5 241C0.5 254.531 11.469 265.5 25 265.5H145C155.788 265.5 166.017 267.889 175.187 272.166L70.9421 376.411C61.3743 385.979 61.3742 401.491 70.9421 411.059C80.5099 420.627 96.0225 420.627 105.59 411.059L209.835 306.815C214.111 315.985 216.5 326.213 216.5 337V457C216.5 470.531 227.469 481.5 241 481.5C254.531 481.5 265.5 470.531 265.5 457V337C265.5 297.512 297.512 265.5 337 265.5H457C470.531 265.5 481.5 254.531 481.5 241C481.5 227.469 470.531 216.5 457 216.5H337C326.213 216.5 315.985 214.111 306.815 209.835L411.06 105.589C420.628 96.0214 420.628 80.5088 411.06 70.941C401.493 61.3731 385.98 61.3731 376.412 70.941L272.166 175.187C267.889 166.017 265.5 155.788 265.5 145V25ZM343.178 308.528C333.61 298.96 318.098 298.96 308.53 308.528C298.962 318.096 298.962 333.609 308.53 343.177L376.412 411.059C385.98 420.626 401.493 420.626 411.06 411.059C420.628 401.491 420.628 385.978 411.06 376.41L343.178 308.528ZM138.824 173.471C148.392 183.039 163.904 183.039 173.472 173.471C183.04 163.903 183.04 148.391 173.472 138.823L105.589 70.9403C96.0215 61.3724 80.5089 61.3724 70.941 70.9403C61.3731 80.5081 61.3731 96.0207 70.941 105.589L138.824 173.471Z" stroke="#F0A214" stroke-linecap="round"/>
</svg>
