<svg width="33" height="33" viewBox="0 0 33 33" fill="none" xmlns="http://www.w3.org/2000/svg">
<path fill-rule="evenodd" clip-rule="evenodd" d="M28.7824 7.62647C29.0323 7.8765 29.1728 8.21558 29.1728 8.56913C29.1728 8.92268 29.0323 9.26176 28.7824 9.5118L13.793 24.5025C13.6568 24.6387 13.4951 24.7468 13.3171 24.8206C13.1392 24.8943 12.9484 24.9323 12.7557 24.9323C12.5631 24.9323 12.3723 24.8943 12.1943 24.8206C12.0163 24.7468 11.8546 24.6387 11.7184 24.5025L4.27038 17.0545C4.1465 16.9306 4.04823 16.7835 3.98119 16.6217C3.91415 16.4598 3.87964 16.2863 3.87964 16.1111C3.87964 15.9359 3.91415 15.7625 3.98119 15.6006C4.04823 15.4387 4.1465 15.2917 4.27038 15.1678C4.39426 15.0439 4.54133 14.9457 4.70319 14.8786C4.86504 14.8116 5.03852 14.7771 5.21371 14.7771C5.38891 14.7771 5.56238 14.8116 5.72424 14.8786C5.8861 14.9457 6.03317 15.0439 6.15705 15.1678L12.757 21.7678L26.8957 7.62647C27.1458 7.3765 27.4848 7.23608 27.8384 7.23608C28.1919 7.23608 28.5323 7.3765 28.7824 7.62647Z" fill="#36A1D6"/>
</svg>
