<svg width="20" height="21" viewBox="0 0 20 21" fill="none" xmlns="http://www.w3.org/2000/svg">
<path d="M14.8347 3.15289C14.3497 2.89872 13.773 3.27455 13.7263 3.87372C13.7172 3.98539 13.708 4.11122 13.6997 4.25039C12.8531 4.25535 12.0245 4.49468 11.3056 4.94185C10.5868 5.38901 10.0058 6.02653 9.62718 6.78372L9.16634 7.70539L8.70551 6.78372C8.32477 6.02237 7.73953 5.38209 7.01537 4.93464C6.29121 4.4872 5.45675 4.25026 4.60551 4.25039H3.33301C3.16886 4.25039 3.00631 4.28272 2.85465 4.34554C2.703 4.40835 2.5652 4.50043 2.44912 4.6165C2.33305 4.73257 2.24098 4.87037 2.17816 5.02203C2.11534 5.17369 2.08301 5.33623 2.08301 5.50039C2.08301 5.66454 2.11534 5.82708 2.17816 5.97874C2.24098 6.1304 2.33305 6.2682 2.44912 6.38427C2.5652 6.50034 2.703 6.59242 2.85465 6.65523C3.00631 6.71805 3.16886 6.75039 3.33301 6.75039H4.60634C4.99323 6.7504 5.37248 6.85815 5.70159 7.06156C6.03069 7.26497 6.29666 7.556 6.46967 7.90205L7.76884 10.5004L6.46884 13.0987C6.29595 13.4445 6.03025 13.7354 5.70146 13.9388C5.37268 14.1422 4.99378 14.2501 4.60717 14.2504H3.33301C3.00149 14.2504 2.68354 14.3821 2.44912 14.6165C2.2147 14.8509 2.08301 15.1689 2.08301 15.5004C2.08301 15.8319 2.2147 16.1498 2.44912 16.3843C2.68354 16.6187 3.00149 16.7504 3.33301 16.7504H4.60634C5.45758 16.7505 6.29204 16.5136 7.0162 16.0661C7.74036 15.6187 8.3256 14.9784 8.70634 14.2171L9.16634 13.2954L9.62718 14.2171C10.0057 14.974 10.5864 15.6113 11.3049 16.0585C12.0234 16.5056 12.8517 16.7451 13.698 16.7504C13.708 16.9287 13.7188 17.0862 13.7305 17.2212C13.7755 17.7804 14.3005 18.1012 14.7805 17.8504C15.0972 17.6854 15.558 17.4287 16.1063 17.0721C16.5413 16.7915 16.9626 16.4903 17.3688 16.1696C17.8022 15.8271 17.818 15.1562 17.4105 14.8312C16.9995 14.5055 16.5732 14.1996 16.133 13.9146C15.7123 13.6406 15.2791 13.3864 14.8347 13.1529C14.3497 12.8987 13.773 13.2746 13.7263 13.8737C13.7172 13.9854 13.708 14.1112 13.6997 14.2504C13.3173 14.2455 12.9437 14.1354 12.6197 13.9323C12.2958 13.7291 12.034 13.4408 11.863 13.0987L10.5638 10.5004L11.8638 7.90205C12.0346 7.56052 12.2958 7.27247 12.6192 7.06936C12.9425 6.86626 13.3154 6.75592 13.6972 6.75039C13.708 6.92872 13.7188 7.08622 13.7305 7.22122C13.7755 7.78039 14.3005 8.10122 14.7805 7.85039C15.2345 7.612 15.6769 7.35227 16.1063 7.07205C16.6563 6.71539 17.0838 6.39539 17.3688 6.16955C17.8022 5.82705 17.818 5.15622 17.4105 4.83122C16.9995 4.50552 16.5732 4.19962 16.133 3.91455C15.7123 3.64058 15.2791 3.38641 14.8347 3.15289Z" fill="white"/>
</svg>
