<svg width="25" height="25" viewBox="0 0 25 25" fill="none" xmlns="http://www.w3.org/2000/svg">
<g clip-path="url(#clip0_561_834)">
<path fill-rule="evenodd" clip-rule="evenodd" d="M12.2773 4.39642C9.49034 4.39642 7.01434 5.65342 5.25134 7.20942C4.36734 7.99042 3.63734 8.86642 3.12334 9.74042C2.61734 10.5974 2.27734 11.5264 2.27734 12.3964C2.27734 13.2664 2.61734 14.1954 3.12334 15.0524C3.63734 15.9254 4.36634 16.8024 5.25134 17.5834C7.01434 19.1394 9.49134 20.3964 12.2773 20.3964C15.0643 20.3964 17.5403 19.1394 19.3033 17.5834C20.1883 16.8024 20.9173 15.9254 21.4313 15.0524C21.9373 14.1954 22.2773 13.2664 22.2773 12.3964C22.2773 11.5264 21.9373 10.5974 21.4313 9.74042C20.9173 8.86742 20.1883 7.99042 19.3033 7.20942C17.5403 5.65342 15.0633 4.39642 12.2773 4.39642ZM14.2773 12.3964C14.6373 12.3964 14.9743 12.3014 15.2663 12.1354C15.3196 12.7486 15.183 13.3634 14.875 13.8963C14.567 14.4292 14.1026 14.8545 13.5447 15.1144C12.9868 15.3744 12.3624 15.4565 11.7562 15.3495C11.1501 15.2425 10.5915 14.9517 10.1563 14.5165C9.72106 14.0812 9.43023 13.5227 9.32326 12.9165C9.21629 12.3104 9.29835 11.686 9.55832 11.1281C9.81828 10.5702 10.2436 10.1057 10.7765 9.79773C11.3094 9.48975 11.9241 9.35313 12.5373 9.40642C12.364 9.71078 12.2735 10.0553 12.2752 10.4056C12.2768 10.7559 12.3703 11.0996 12.5465 11.4024C12.7227 11.7051 12.9753 11.9563 13.2791 12.1307C13.5828 12.3052 13.9271 12.3968 14.2773 12.3964Z" fill="#09244B"/>
</g>
<defs>
<clipPath id="clip0_561_834">
<rect width="24" height="24" fill="white" transform="translate(0.277344 0.396423)"/>
</clipPath>
</defs>
</svg>
