<svg width="32" height="33" viewBox="0 0 32 33" fill="none" xmlns="http://www.w3.org/2000/svg">
<path d="M28.4377 13.8333C28.5323 13.8333 28.6259 13.8535 28.7121 13.8925C28.7983 13.9314 28.8753 13.9883 28.9379 14.0593C29.0004 14.1303 29.0472 14.2138 29.0749 14.3043C29.1027 14.3948 29.1109 14.4901 29.099 14.584L29.0763 14.6907L25.223 27.5493C25.1484 27.7983 25.0026 28.0201 24.8036 28.1873C24.6047 28.3546 24.3611 28.46 24.103 28.4907L23.947 28.5H5.33366C4.81288 28.5012 4.30327 28.3491 3.86833 28.0627C3.83179 27.963 3.8199 27.8559 3.83366 27.7507L3.85633 27.6413L7.71499 14.784C7.78951 14.5352 7.93507 14.3136 8.1338 14.1463C8.33253 13.9791 8.57578 13.8736 8.83366 13.8427L8.99233 13.8333H28.4377ZM12.6937 4.5C13.053 4.4998 13.4086 4.57221 13.7392 4.71289C14.0699 4.85358 14.3687 5.05963 14.6177 5.31867L14.7777 5.50133L16.6403 7.83333H25.3337C26.0064 7.83312 26.6544 8.08721 27.1477 8.54466C27.641 9.00212 27.9432 9.62913 27.9937 10.3L28.0003 10.5V11.1667H8.99233C8.17482 11.1667 7.37693 11.4171 6.70611 11.8844C6.03528 12.3516 5.52373 13.0132 5.24033 13.78L5.16033 14.0173L2.66699 22.3267V7.16667C2.66678 6.4939 2.92087 5.84591 3.37832 5.3526C3.83578 4.85929 4.46279 4.55712 5.13366 4.50667L5.33366 4.5H12.6937Z" fill="#BE9050"/>
</svg>
