<svg width="1920" height="699" viewBox="0 0 1920 699" fill="none" xmlns="http://www.w3.org/2000/svg">
<mask id="path-1-inside-1_417_494" fill="white">
<path d="M1745.45 523.955V436.683H1570.91C1570.91 340.284 1649.06 262.137 1745.45 262.137V174.864H1570.91C1474.51 174.864 1396.36 96.7173 1396.36 0.318359H1920V698.501H1396.36V523.955H1745.45ZM523.637 611.228C523.637 659.427 484.563 698.5 436.363 698.5C388.164 698.5 349.091 659.427 349.091 611.228C349.091 563.028 388.164 523.955 436.363 523.955H349.091V349.409H0V174.863C0.000280457 78.4647 78.1473 0.318359 174.546 0.318359V174.863H349.091V0.318359H523.637V611.228ZM1221.82 523.955L1221.8 526.211C1220.61 620.819 1144.14 697.287 1049.53 698.485L1047.27 698.5H698.182V349.409H872.728V523.955H1047.27V174.863H872.728V349.409C776.329 349.409 698.182 271.262 698.182 174.863V0.318359H1221.82V523.955Z"/>
</mask>
<path d="M1745.45 523.955V436.683H1570.91C1570.91 340.284 1649.06 262.137 1745.45 262.137V174.864H1570.91C1474.51 174.864 1396.36 96.7173 1396.36 0.318359H1920V698.501H1396.36V523.955H1745.45ZM523.637 611.228C523.637 659.427 484.563 698.5 436.363 698.5C388.164 698.5 349.091 659.427 349.091 611.228C349.091 563.028 388.164 523.955 436.363 523.955H349.091V349.409H0V174.863C0.000280457 78.4647 78.1473 0.318359 174.546 0.318359V174.863H349.091V0.318359H523.637V611.228ZM1221.82 523.955L1221.8 526.211C1220.61 620.819 1144.14 697.287 1049.53 698.485L1047.27 698.5H698.182V349.409H872.728V523.955H1047.27V174.863H872.728V349.409C776.329 349.409 698.182 271.262 698.182 174.863V0.318359H1221.82V523.955Z" fill="url(#paint0_linear_417_494)"/>
<path d="M1745.45 523.955V524.955H1746.45V523.955H1745.45ZM1745.45 436.683H1746.45V435.683H1745.45V436.683ZM1570.91 436.683H1569.91V437.683H1570.91V436.683ZM1745.45 262.137L1745.45 263.137L1746.45 263.137V262.137H1745.45ZM1745.45 174.864H1746.45V173.864H1745.45V174.864ZM1396.36 0.318359V-0.681641H1395.36V0.318359H1396.36ZM1920 0.318359H1921V-0.681641H1920V0.318359ZM1920 698.501V699.501H1921V698.501H1920ZM1396.36 698.501H1395.36V699.501H1396.36V698.501ZM1396.36 523.955V522.955H1395.36V523.955H1396.36ZM523.637 611.228L524.637 611.228V611.228H523.637ZM436.363 698.5L436.363 699.5H436.363V698.5ZM349.091 611.228L348.091 611.228L348.091 611.228L349.091 611.228ZM349.091 523.955H348.091V524.955H349.091V523.955ZM349.091 349.409H350.091V348.409H349.091V349.409ZM0 349.409H-1V350.409H0V349.409ZM0 174.863L-1 174.863V174.863H0ZM174.546 0.318359H175.546V-0.681641H174.546V0.318359ZM174.546 174.863H173.546V175.863H174.546V174.863ZM349.091 174.863V175.863H350.091V174.863H349.091ZM349.091 0.318359V-0.681641H348.091V0.318359H349.091ZM523.637 0.318359H524.637V-0.681641H523.637V0.318359ZM1221.82 523.955L1222.82 523.962V523.955H1221.82ZM1221.8 526.211L1222.8 526.224L1222.8 526.217L1221.8 526.211ZM1049.53 698.485L1049.53 699.485L1049.54 699.485L1049.53 698.485ZM1047.27 698.5V699.5L1047.28 699.5L1047.27 698.5ZM698.182 698.5H697.182V699.5H698.182V698.5ZM698.182 349.409V348.409H697.182V349.409H698.182ZM872.728 523.955H871.728V524.955H872.728V523.955ZM1047.27 523.955V524.955H1048.27V523.955H1047.27ZM1047.27 174.863H1048.27V173.863H1047.27V174.863ZM872.728 174.863V173.863H871.728V174.863H872.728ZM698.182 0.318359V-0.681641H697.182V0.318359H698.182ZM1221.82 0.318359H1222.82V-0.681641H1221.82V0.318359ZM1745.45 523.955H1746.45V436.683H1745.45H1744.45V523.955H1745.45ZM1745.45 436.683V435.683H1570.91V436.683V437.683H1745.45V436.683ZM1570.91 436.683H1571.91C1571.91 340.836 1649.61 263.137 1745.45 263.137L1745.45 262.137L1745.45 261.137C1648.5 261.137 1569.91 339.731 1569.91 436.683H1570.91ZM1745.45 262.137H1746.45V174.864H1745.45H1744.45V262.137H1745.45ZM1745.45 174.864V173.864H1570.91V174.864V175.864H1745.45V174.864ZM1570.91 174.864V173.864C1475.06 173.864 1397.36 96.165 1397.36 0.318359H1396.36H1395.36C1395.36 97.2696 1473.96 175.864 1570.91 175.864V174.864ZM1396.36 0.318359V1.31836H1920V0.318359V-0.681641H1396.36V0.318359ZM1920 0.318359H1919V698.501H1920H1921V0.318359H1920ZM1920 698.501V697.501H1396.36V698.501V699.501H1920V698.501ZM1396.36 698.501H1397.36V523.955H1396.36H1395.36V698.501H1396.36ZM1396.36 523.955V524.955H1745.45V523.955V522.955H1396.36V523.955ZM523.637 611.228L522.637 611.228C522.637 658.875 484.01 697.5 436.363 697.5V698.5V699.5C485.115 699.5 524.637 659.979 524.637 611.228L523.637 611.228ZM436.363 698.5L436.363 697.5C388.716 697.5 350.091 658.874 350.091 611.228L349.091 611.228L348.091 611.228C348.091 659.979 387.612 699.5 436.363 699.5L436.363 698.5ZM349.091 611.228H350.091C350.091 563.581 388.716 524.955 436.363 524.955L436.363 523.955L436.363 522.955C387.612 522.955 348.091 562.476 348.091 611.228H349.091ZM436.363 523.955V522.955H349.091V523.955V524.955H436.363V523.955ZM349.091 523.955H350.091V349.409H349.091H348.091V523.955H349.091ZM349.091 349.409V348.409H0V349.409V350.409H349.091V349.409ZM0 349.409H1V174.863H0H-1V349.409H0ZM0 174.863L1 174.863C1.00028 79.017 78.6996 1.31836 174.546 1.31836V0.318359V-0.681641C77.595 -0.681641 -0.999718 77.9125 -1 174.863L0 174.863ZM174.546 0.318359H173.546V174.863H174.546H175.546V0.318359H174.546ZM174.546 174.863V175.863H349.091V174.863V173.863H174.546V174.863ZM349.091 174.863H350.091V0.318359H349.091H348.091V174.863H349.091ZM349.091 0.318359V1.31836H523.637V0.318359V-0.681641H349.091V0.318359ZM523.637 0.318359H522.637V611.228H523.637H524.637V0.318359H523.637ZM1221.82 523.955L1220.82 523.949L1220.8 526.204L1221.8 526.211L1222.8 526.217L1222.82 523.962L1221.82 523.955ZM1221.8 526.211L1220.8 526.198C1219.61 620.264 1143.58 696.294 1049.52 697.485L1049.53 698.485L1049.54 699.485C1144.69 698.28 1221.6 621.374 1222.8 526.224L1221.8 526.211ZM1049.53 698.485L1049.52 697.485L1047.27 697.5L1047.27 698.5L1047.28 699.5L1049.53 699.485L1049.53 698.485ZM1047.27 698.5V697.5H698.182V698.5V699.5H1047.27V698.5ZM698.182 698.5H699.182V349.409H698.182H697.182V698.5H698.182ZM698.182 349.409V350.409H872.728V349.409V348.409H698.182V349.409ZM872.728 349.409H871.728V523.955H872.728H873.728V349.409H872.728ZM872.728 523.955V524.955H1047.27V523.955V522.955H872.728V523.955ZM1047.27 523.955H1048.27V174.863H1047.27H1046.27V523.955H1047.27ZM1047.27 174.863V173.863H872.728V174.863V175.863H1047.27V174.863ZM872.728 174.863H871.728V349.409H872.728H873.728V174.863H872.728ZM872.728 349.409V348.409C776.881 348.409 699.182 270.71 699.182 174.863H698.182H697.182C697.182 271.814 775.776 350.409 872.728 350.409V349.409ZM698.182 174.863H699.182V0.318359H698.182H697.182V174.863H698.182ZM698.182 0.318359V1.31836H1221.82V0.318359V-0.681641H698.182V0.318359ZM1221.82 0.318359H1220.82V523.955H1221.82H1222.82V0.318359H1221.82Z" fill="url(#paint1_linear_417_494)" mask="url(#path-1-inside-1_417_494)"/>
<defs>
<linearGradient id="paint0_linear_417_494" x1="1570.15" y1="0.318359" x2="1570.15" y2="698.5" gradientUnits="userSpaceOnUse">
<stop stop-color="#FBE1E1"/>
<stop offset="1" stop-color="white"/>
</linearGradient>
<linearGradient id="paint1_linear_417_494" x1="1570.15" y1="0.318359" x2="1570.15" y2="698.5" gradientUnits="userSpaceOnUse">
<stop stop-color="#EB8B8B"/>
<stop offset="1" stop-color="white"/>
</linearGradient>
</defs>
</svg>
