<svg width="25" height="24" viewBox="0 0 25 24" fill="none" xmlns="http://www.w3.org/2000/svg">
<path fill-rule="evenodd" clip-rule="evenodd" d="M12.5 -2.62268e-07C13.1627 -2.76753e-07 13.7 0.537258 13.7 1.2L13.7 7.2C13.7 7.7558 13.826 8.28217 14.0509 8.75215L19.2883 3.51473C19.7569 3.0461 20.5167 3.0461 20.9853 3.51473C21.454 3.98336 21.454 4.74315 20.9853 5.21178L15.748 10.4492C16.2179 10.6741 16.7442 10.8 17.3 10.8L23.3 10.8C23.9627 10.8 24.5 11.3373 24.5 12C24.5 12.6627 23.9627 13.2 23.3 13.2L17.3 13.2C15.3118 13.2 13.7 14.8118 13.7 16.8L13.7 22.8C13.7 23.4627 13.1627 24 12.5 24C11.8373 24 11.3 23.4627 11.3 22.8L11.3 16.8C11.3 16.2442 11.1741 15.7179 10.9492 15.248L5.71184 20.4853C5.24321 20.9539 4.48341 20.9539 4.01478 20.4853C3.54615 20.0167 3.54615 19.2569 4.01478 18.7882L9.25215 13.5509C8.78217 13.326 8.2558 13.2 7.7 13.2L1.7 13.2C1.03726 13.2 0.5 12.6627 0.5 12C0.5 11.3373 1.03726 10.8 1.7 10.8L7.7 10.8C9.68823 10.8 11.3 9.18823 11.3 7.2L11.3 1.2C11.3 0.537258 11.8373 -2.47784e-07 12.5 -2.62268e-07ZM17.5912 15.3941C17.1226 14.9255 16.3628 14.9255 15.8942 15.3941C15.4255 15.8627 15.4255 16.6225 15.8942 17.0911L19.2883 20.4853C19.7569 20.9539 20.5167 20.9539 20.9853 20.4853C21.454 20.0166 21.454 19.2568 20.9853 18.7882L17.5912 15.3941Z" fill="#3DC063"/>
<path d="M5.30149 5.84471C6.41844 7.53095 9.19724 7.93078 9.19724 7.93078C9.19724 7.93078 8.97396 5.58487 7.7 3.51473C6.86599 2.15949 4.65503 1.39641 4.65503 1.39641C4.65503 1.39641 4.2152 4.20476 5.30149 5.84471Z" fill="#3DC063"/>
</svg>
