<svg width="892" height="892" viewBox="0 0 892 892" fill="none" xmlns="http://www.w3.org/2000/svg">
<path d="M446 31.3027C484.162 31.3027 515.098 62.2389 515.098 100.4V279.186L641.519 152.765L642.154 152.138C669.186 125.782 712.464 125.991 739.237 152.765L739.865 153.4C766.013 180.219 766.012 223.029 739.865 249.848L739.237 250.483L612.818 376.902H791.6C829.761 376.902 860.697 407.838 860.697 446C860.697 484.162 829.761 515.098 791.6 515.098H599.977C611.203 518.153 621.81 524.088 630.626 532.904L739.237 641.516L739.865 642.151C766.22 669.183 766.011 712.461 739.237 739.234C712.464 766.008 669.186 766.217 642.154 739.862L641.519 739.234L532.907 630.623C524.088 621.804 518.152 611.194 515.098 599.964V791.6C515.098 829.761 484.162 860.697 446 860.697C407.838 860.697 376.902 829.761 376.902 791.6V612.818L250.485 739.235C223.712 766.009 180.434 766.218 153.402 739.863L152.767 739.235C125.782 712.251 125.782 668.501 152.767 641.517L279.186 515.098H100.4C62.2389 515.098 31.3027 484.162 31.3027 446C31.3027 407.838 62.2389 376.902 100.4 376.902H292.029C281.07 373.92 270.702 368.194 262.013 359.722L261.377 359.095L152.765 250.482C125.78 223.498 125.78 179.748 152.765 152.764L153.4 152.136C180.432 125.781 223.71 125.99 250.483 152.764L359.096 261.376L359.724 262.011C368.194 270.699 373.92 281.066 376.902 292.023V100.4C376.902 62.2389 407.838 31.3027 446 31.3027Z" fill="#FEF3DE" stroke="#FEF3DE" stroke-width="61.3951" stroke-linecap="round"/>
</svg>
