<svg width="482" height="482" viewBox="0 0 482 482" fill="none" xmlns="http://www.w3.org/2000/svg">
<path d="M241 0.5C254.531 0.5 265.5 11.469 265.5 25V145C265.5 155.788 267.89 166.015 272.167 175.186L376.412 70.9414L376.865 70.499C386.464 61.3753 401.642 61.5232 411.061 70.9414L411.502 71.3936C420.481 80.8396 420.481 95.6907 411.502 105.137L411.061 105.589L306.815 209.833C315.985 214.11 326.213 216.5 337 216.5H457C470.531 216.5 481.5 227.469 481.5 241C481.5 254.531 470.531 265.5 457 265.5H337C297.512 265.5 265.5 297.512 265.5 337V457C265.5 470.531 254.531 481.5 241 481.5C227.469 481.5 216.5 470.531 216.5 457V337C216.5 326.213 214.11 315.985 209.833 306.815L105.59 411.06C96.1714 420.478 80.9928 420.625 71.3945 411.501L70.9424 411.06C61.3745 401.492 61.3745 385.979 70.9424 376.411L175.186 272.167C166.015 267.89 155.788 265.5 145 265.5H25C11.469 265.5 0.5 254.531 0.5 241C0.5 227.469 11.469 216.5 25 216.5H145C184.488 216.5 216.5 184.488 216.5 145V25C216.5 11.469 227.469 0.5 241 0.5ZM308.982 308.087C318.581 298.963 333.759 299.11 343.178 308.528L411.061 376.41L411.502 376.863C420.626 386.462 420.479 401.64 411.061 411.059C401.642 420.477 386.464 420.624 376.865 411.5L376.412 411.059L308.53 343.177C298.962 333.609 298.962 318.096 308.53 308.528L308.982 308.087ZM71.3936 70.499C80.9919 61.3748 96.1704 61.5222 105.589 70.9404L173.472 138.822L173.913 139.275C182.893 148.722 182.893 163.572 173.913 173.019L173.472 173.471C164.053 182.889 148.875 183.036 139.276 173.912L138.823 173.471L70.9414 105.589C61.3735 96.021 61.3735 80.5083 70.9414 70.9404L71.3936 70.499Z" stroke="#F0A214" stroke-linecap="round"/>
</svg>
