<svg width="1069" height="665" viewBox="0 0 1069 665" fill="none" xmlns="http://www.w3.org/2000/svg">
<path d="M279.683 157.407C279.683 157.407 310.454 85.5427 249.843 61.2983C205.504 43.5626 129.921 58.2426 85.2609 107.922C40.7759 157.407 18.4956 222.477 32.1098 290.921C49.1275 376.475 107.174 444.779 289.706 396.057M289.706 396.057C289.706 396.057 301.647 287.406 299.111 283.937C294.863 278.127 215.575 281.596 215.575 281.596M289.706 396.057C278.735 468.176 247.308 642.795 189.732 638.969C124.704 634.647 135.757 531.762 242.11 463.91C348.462 396.057 406.949 377.182 467.758 281.596C517.187 203.898 552.439 128.334 538.418 56.6258C532.631 27.0272 496.58 18.3423 475.523 39.3997C457.896 57.0264 444.694 80.5714 425.678 147.351C392.362 264.345 405.123 395.738 463.689 412.929C524.091 421.58 558.774 310.435 563.787 310.435C568.8 310.435 554.128 414.948 618.63 417.137C670.962 418.914 721.132 360.585 686.367 270.814C672.844 235.896 631.027 223.266 606.618 248.472C586.928 268.804 592.65 288.065 606.618 296.002C648.254 319.66 693.368 329.712 742.872 310.435C790.55 291.87 790.164 248.472 794.505 248.472C798.846 248.472 782.03 414.649 815.884 419.508C832.831 421.939 902.371 252.678 906.785 253.387C911.199 254.096 913.05 427.709 934.048 419.508C960.7 409.098 1034.07 280.929 1042.15 251.282" stroke="#FADCA6" stroke-width="50" stroke-linecap="round"/>
</svg>
