<svg width="640" height="640" viewBox="0 0 640 640" fill="none" xmlns="http://www.w3.org/2000/svg">
<mask id="path-1-inside-1_291_1129" fill="white">
<path fill-rule="evenodd" clip-rule="evenodd" d="M320 0C143.269 0 0 143.269 0 320C0 496.731 143.269 640 320 640C496.731 640 640 496.731 640 320C640 143.269 496.731 0 320 0ZM336 176C336 167.163 328.837 160 320 160C311.163 160 304 167.163 304 176V256C304 282.51 282.51 304 256 304H176C167.163 304 160 311.163 160 320C160 328.837 167.163 336 176 336H256C263.411 336 270.429 337.679 276.695 340.678L206.864 410.51C200.615 416.758 200.615 426.889 206.864 433.137C213.112 439.386 223.243 439.386 229.491 433.137L299.322 363.306C302.321 369.572 304 376.59 304 384V464C304 472.837 311.163 480 320 480C328.837 480 336 472.837 336 464V384C336 357.49 357.49 336 384 336H464C472.837 336 480 328.837 480 320C480 311.163 472.837 304 464 304H384C376.59 304 369.572 302.321 363.306 299.322L433.138 229.49C439.386 223.242 439.386 213.111 433.138 206.863C426.89 200.615 416.759 200.615 410.51 206.863L340.678 276.695C337.679 270.429 336 263.411 336 256V176ZM365.256 365.255C371.504 359.006 381.635 359.006 387.883 365.255L433.138 410.509C439.386 416.758 439.386 426.888 433.138 433.137C426.889 439.385 416.759 439.385 410.51 433.137L365.256 387.882C359.007 381.634 359.007 371.503 365.256 365.255ZM274.746 274.745C268.497 280.993 258.367 280.993 252.118 274.745L206.863 229.49C200.615 223.242 200.615 213.111 206.863 206.863C213.111 200.614 223.242 200.614 229.491 206.863L274.746 252.118C280.994 258.366 280.994 268.497 274.746 274.745Z"/>
</mask>
<path d="M276.695 340.678L277.402 341.385L278.402 340.386L277.127 339.776L276.695 340.678ZM206.864 410.51L206.157 409.803L206.864 410.51ZM206.864 433.137L207.571 432.43V432.43L206.864 433.137ZM229.491 433.137L228.784 432.43L229.491 433.137ZM299.322 363.306L300.224 362.874L299.614 361.6L298.615 362.599L299.322 363.306ZM363.306 299.322L362.599 298.615L361.6 299.614L362.874 300.224L363.306 299.322ZM433.138 229.49L433.845 230.198H433.845L433.138 229.49ZM433.138 206.863L433.845 206.156H433.845L433.138 206.863ZM410.51 206.863L409.803 206.156L410.51 206.863ZM340.678 276.695L339.776 277.127L340.386 278.402L341.385 277.402L340.678 276.695ZM387.883 365.255L388.59 364.547L387.883 365.255ZM365.256 365.255L364.548 364.547V364.547L365.256 365.255ZM433.138 410.509L433.845 409.802V409.802L433.138 410.509ZM410.51 433.137L411.218 432.43V432.43L410.51 433.137ZM365.256 387.882L364.548 388.589V388.589L365.256 387.882ZM252.118 274.745L252.825 274.038V274.038L252.118 274.745ZM274.746 274.745L274.039 274.038V274.038L274.746 274.745ZM206.863 229.49L206.156 230.197L206.863 229.49ZM206.863 206.863L207.57 207.57L206.863 206.863ZM229.491 206.863L230.198 206.155L229.491 206.863ZM274.746 252.118L274.039 252.825L274.746 252.118ZM1 320C1 143.821 143.821 1 320 1V-1C142.717 -1 -1 142.717 -1 320H1ZM320 639C143.821 639 1 496.179 1 320H-1C-1 497.283 142.717 641 320 641V639ZM639 320C639 496.179 496.179 639 320 639V641C497.283 641 641 497.283 641 320H639ZM320 1C496.179 1 639 143.821 639 320H641C641 142.717 497.283 -1 320 -1V1ZM320 161C328.284 161 335 167.716 335 176H337C337 166.611 329.389 159 320 159V161ZM305 176C305 167.716 311.716 161 320 161V159C310.611 159 303 166.611 303 176H305ZM305 256V176H303V256H305ZM256 305C283.062 305 305 283.062 305 256H303C303 281.957 281.957 303 256 303V305ZM176 305H256V303H176V305ZM161 320C161 311.716 167.716 305 176 305V303C166.611 303 159 310.611 159 320H161ZM176 335C167.716 335 161 328.284 161 320H159C159 329.389 166.611 337 176 337V335ZM256 335H176V337H256V335ZM277.127 339.776C270.729 336.714 263.563 335 256 335V337C263.258 337 270.129 338.645 276.264 341.58L277.127 339.776ZM207.571 411.217L277.402 341.385L275.988 339.971L206.157 409.803L207.571 411.217ZM207.571 432.43C201.713 426.572 201.713 417.075 207.571 411.217L206.157 409.803C199.518 416.442 199.518 427.205 206.157 433.844L207.571 432.43ZM228.784 432.43C222.926 438.288 213.429 438.288 207.571 432.43L206.157 433.844C212.796 440.483 223.559 440.483 230.198 433.844L228.784 432.43ZM298.615 362.599L228.784 432.43L230.198 433.844L300.029 364.013L298.615 362.599ZM305 384C305 376.437 303.286 369.272 300.224 362.874L298.42 363.738C301.356 369.872 303 376.742 303 384H305ZM305 464V384H303V464H305ZM320 479C311.716 479 305 472.284 305 464H303C303 473.389 310.611 481 320 481V479ZM335 464C335 472.284 328.284 479 320 479V481C329.389 481 337 473.389 337 464H335ZM335 384V464H337V384H335ZM384 335C356.938 335 335 356.938 335 384H337C337 358.043 358.043 337 384 337V335ZM464 335H384V337H464V335ZM479 320C479 328.284 472.284 335 464 335V337C473.389 337 481 329.389 481 320H479ZM464 305C472.284 305 479 311.716 479 320H481C481 310.611 473.389 303 464 303V305ZM384 305H464V303H384V305ZM362.874 300.224C369.272 303.286 376.437 305 384 305V303C376.742 303 369.872 301.356 363.738 298.42L362.874 300.224ZM432.431 228.783L362.599 298.615L364.013 300.029L433.845 230.198L432.431 228.783ZM432.431 207.57C438.289 213.428 438.289 222.925 432.431 228.783L433.845 230.198C440.484 223.559 440.484 212.795 433.845 206.156L432.431 207.57ZM411.218 207.57C417.076 201.712 426.573 201.712 432.431 207.57L433.845 206.156C427.206 199.517 416.442 199.517 409.803 206.156L411.218 207.57ZM341.385 277.402L411.218 207.57L409.803 206.156L339.971 275.988L341.385 277.402ZM335 256C335 263.563 336.714 270.729 339.776 277.127L341.58 276.264C338.644 270.129 337 263.258 337 256H335ZM335 176V256H337V176H335ZM388.59 364.547C381.951 357.909 371.187 357.909 364.548 364.547L365.963 365.962C371.821 360.104 381.318 360.104 387.176 365.962L388.59 364.547ZM433.845 409.802L388.59 364.547L387.176 365.962L432.431 411.216L433.845 409.802ZM433.845 433.844C440.484 427.205 440.484 416.441 433.845 409.802L432.431 411.216C438.289 417.074 438.289 426.572 432.431 432.43L433.845 433.844ZM409.803 433.844C416.442 440.483 427.206 440.483 433.845 433.844L432.431 432.43C426.573 438.287 417.075 438.287 411.218 432.43L409.803 433.844ZM364.548 388.589L409.803 433.844L411.218 432.43L365.963 387.175L364.548 388.589ZM364.548 364.547C357.91 371.186 357.91 381.95 364.548 388.589L365.963 387.175C360.105 381.317 360.105 371.82 365.963 365.962L364.548 364.547ZM251.411 275.452C258.05 282.091 268.814 282.091 275.453 275.452L274.039 274.038C268.181 279.896 258.683 279.896 252.825 274.038L251.411 275.452ZM206.156 230.197L251.411 275.452L252.825 274.038L207.57 228.783L206.156 230.197ZM206.156 206.155C199.517 212.794 199.517 223.558 206.156 230.197L207.57 228.783C201.712 222.925 201.712 213.428 207.57 207.57L206.156 206.155ZM230.198 206.155C223.559 199.517 212.795 199.517 206.156 206.155L207.57 207.57C213.428 201.712 222.926 201.712 228.783 207.57L230.198 206.155ZM275.453 251.41L230.198 206.155L228.783 207.57L274.039 252.825L275.453 251.41ZM275.453 275.452C282.092 268.813 282.092 258.049 275.453 251.41L274.039 252.825C279.896 258.682 279.896 268.18 274.039 274.038L275.453 275.452Z" fill="url(#paint0_linear_291_1129)" mask="url(#path-1-inside-1_291_1129)"/>
<defs>
<linearGradient id="paint0_linear_291_1129" x1="320" y1="0" x2="320" y2="640" gradientUnits="userSpaceOnUse">
<stop stop-color="#F0A214" stop-opacity="0.6"/>
<stop offset="1" stop-color="#F0A214" stop-opacity="0"/>
</linearGradient>
</defs>
</svg>
