<svg width="444" height="377" viewBox="0 0 444 377" fill="none" xmlns="http://www.w3.org/2000/svg">
<path d="M0 -52C37.7763 -52 68.4004 -21.3759 68.4004 16.4004V196.869L196.012 69.2578L196.642 68.6367C223.189 42.7534 265.568 42.7533 292.115 68.6367L292.744 69.2578L293.365 69.8867C319.249 96.4345 319.249 138.813 293.365 165.361L292.744 165.99L165.135 293.6H345.6C383.376 293.6 414 324.224 414 362C414 399.776 383.376 430.4 345.6 430.4H153.6C151.884 430.4 150.18 430.452 148.489 430.552C161.547 433.011 174.028 439.293 184.133 449.397L292.744 558.009L293.365 558.639C319.454 585.397 319.247 628.238 292.744 654.741C266.241 681.244 223.399 681.452 196.641 655.362L196.012 654.741L87.4004 546.13C77.2935 536.023 71.0114 523.54 68.5527 510.479C68.4523 512.173 68.4004 513.881 68.4004 515.6V707.6C68.4004 745.376 37.7763 776 0 776C-37.7763 776 -68.4004 745.376 -68.4004 707.6V527.135L-196.008 654.742C-222.511 681.245 -265.353 681.453 -292.111 655.363L-292.74 654.742C-319.452 628.03 -319.452 584.723 -292.74 558.011L-165.13 430.4H-345.6C-383.376 430.4 -414 399.776 -414 362C-414 324.224 -383.376 293.6 -345.6 293.6H-153.6C-151.882 293.6 -150.176 293.547 -148.483 293.446C-161.273 291.038 -173.509 284.965 -183.501 275.223L-184.13 274.602L-292.742 165.989C-319.454 139.277 -319.454 95.9687 -292.742 69.2568L-292.112 68.6357C-265.354 42.547 -222.513 42.7539 -196.01 69.2568L-87.3975 177.869L-86.7764 178.498C-77.0361 188.488 -70.9623 200.72 -68.5527 213.507C-68.4529 211.817 -68.4004 210.115 -68.4004 208.4V16.4004C-68.4004 -21.3759 -37.7763 -52 0 -52Z" fill="#F9D07D" stroke="#FCE2AE" stroke-width="60" stroke-linecap="round"/>
</svg>
