<svg width="82" height="82" viewBox="0 0 82 82" fill="none" xmlns="http://www.w3.org/2000/svg">
<path opacity="0.25" d="M26.6 46.85C26.6913 46.85 26.7823 46.8514 26.8728 46.8542L13.9534 59.7737C11.6688 62.0583 11.6688 65.7623 13.9534 68.0469C16.2379 70.3314 19.9419 70.3314 22.2265 68.0469L35.1458 55.1276C35.1486 55.218 35.15 55.3088 35.15 55.4V73.4C35.15 76.6309 37.7691 79.25 41 79.25C44.2309 79.25 46.85 76.6309 46.85 73.4V55.4C46.85 50.678 50.678 46.85 55.4 46.85H73.4C76.6309 46.85 79.25 44.2309 79.25 41C79.25 37.7691 76.6309 35.15 73.4 35.15H55.4C55.3088 35.15 55.218 35.1486 55.1276 35.1458L68.047 22.2263C70.3316 19.9418 70.3316 16.2378 68.047 13.9532C65.7625 11.6686 62.0584 11.6686 59.7739 13.9532L46.8542 26.8728C46.8514 26.7823 46.85 26.6913 46.85 26.6V8.6C46.85 5.36914 44.2309 2.75 41 2.75C37.7691 2.75 35.15 5.36913 35.15 8.6V26.6C35.15 31.322 31.322 35.15 26.6 35.15H8.6C5.36913 35.15 2.75 37.7691 2.75 41C2.75 44.2309 5.36914 46.85 8.6 46.85H26.6ZM13.9532 13.9531L15.5442 15.5441L13.9532 13.9531C11.6686 16.2376 11.6686 19.9417 13.9532 22.2262L24.1356 32.4086C26.4202 34.6932 30.1242 34.6932 32.4088 32.4086C34.6933 30.124 34.6933 26.42 32.4088 24.1355L22.2264 13.9531C19.9418 11.6685 16.2378 11.6685 13.9532 13.9531ZM57.8647 49.5913C55.5801 47.3067 51.8761 47.3067 49.5915 49.5913C47.3069 51.8759 47.3069 55.5799 49.5915 57.8644L59.7739 68.0468C62.0584 70.3313 65.7624 70.3313 68.047 68.0468C70.3316 65.7622 70.3316 62.0582 68.047 59.7736L57.8647 49.5913Z" fill="#FCEED6" stroke="#F0A214" stroke-width="4.5" stroke-linecap="round"/>
<path d="M28.9792 28.9791L29.6863 29.6863L28.9792 28.9791C27.9638 29.9945 27.9638 31.6407 28.9792 32.6561L33.5047 37.1816C34.5201 38.197 36.1663 38.197 37.1817 37.1816C38.197 36.1662 38.197 34.52 37.1817 33.5046L32.6562 28.9791C31.6408 27.9638 29.9946 27.9638 28.9792 28.9791ZM43.6 26.6C43.6 25.1641 42.4359 24 41 24C39.5641 24 38.4 25.1641 38.4 26.6V34.6C38.4 36.6987 36.6987 38.4 34.6 38.4H26.6C25.1641 38.4 24 39.5641 24 41C24 42.4359 25.1641 43.6 26.6 43.6H34.6C34.6406 43.6 34.681 43.6006 34.7213 43.6019L28.9793 49.3439C27.9639 50.3592 27.9639 52.0055 28.9793 53.0208C29.9946 54.0362 31.6409 54.0362 32.6562 53.0208L38.3981 47.2789C38.3994 47.3191 38.4 47.3595 38.4 47.4V55.4C38.4 56.8359 39.5641 58 41 58C42.4359 58 43.6 56.8359 43.6 55.4V47.4C43.6 45.3013 45.3013 43.6 47.4 43.6H55.4C56.8359 43.6 58 42.4359 58 41C58 39.5641 56.8359 38.4 55.4 38.4H47.4C47.3595 38.4 47.3191 38.3994 47.2789 38.3981L53.0209 32.6562C54.0363 31.6408 54.0363 29.9946 53.0209 28.9792C52.0055 27.9638 50.3593 27.9638 49.3439 28.9792L50.0511 29.6863L49.3439 28.9792L43.6019 34.7213C43.6006 34.681 43.6 34.6406 43.6 34.6V26.6ZM48.4954 44.8184C47.48 43.803 45.8338 43.803 44.8185 44.8184C43.8031 45.8337 43.8031 47.4799 44.8185 48.4953L49.3439 53.0208C50.3593 54.0361 52.0055 54.0361 53.0209 53.0208C54.0363 52.0054 54.0363 50.3592 53.0209 49.3438L48.4954 44.8184Z" stroke="#F0A214" stroke-width="2" stroke-linecap="round"/>
</svg>
