<svg width="24" height="25" viewBox="0 0 24 25" fill="none" xmlns="http://www.w3.org/2000/svg">
<path fill-rule="evenodd" clip-rule="evenodd" d="M12 0.5C12.6627 0.5 13.2 1.03726 13.2 1.7V7.7C13.2 8.2558 13.326 8.78217 13.5509 9.25215L18.7883 4.01473C19.2569 3.5461 20.0167 3.5461 20.4853 4.01473C20.954 4.48336 20.954 5.24315 20.4853 5.71178L15.248 10.9492C15.7179 11.1741 16.2442 11.3 16.8 11.3H22.8C23.4627 11.3 24 11.8373 24 12.5C24 13.1627 23.4627 13.7 22.8 13.7H16.8C14.8118 13.7 13.2 15.3118 13.2 17.3V23.3C13.2 23.9627 12.6627 24.5 12 24.5C11.3373 24.5 10.8 23.9627 10.8 23.3V17.3C10.8 16.7442 10.6741 16.2179 10.4492 15.748L5.21184 20.9853C4.74321 21.4539 3.98341 21.4539 3.51478 20.9853C3.04615 20.5167 3.04615 19.7569 3.51478 19.2882L8.75215 14.0509C8.28217 13.826 7.7558 13.7 7.2 13.7H1.2C0.537258 13.7 0 13.1627 0 12.5C0 11.8373 0.537258 11.3 1.2 11.3H7.2C9.18823 11.3 10.8 9.68823 10.8 7.7V1.7C10.8 1.03726 11.3373 0.5 12 0.5ZM17.0912 15.8941C16.6226 15.4255 15.8628 15.4255 15.3942 15.8941C14.9255 16.3627 14.9255 17.1225 15.3942 17.5912L18.7883 20.9853C19.2569 21.4539 20.0167 21.4539 20.4853 20.9853C20.954 20.5166 20.954 19.7568 20.4853 19.2882L17.0912 15.8941ZM6.90886 9.10587C7.37749 9.5745 8.13729 9.5745 8.60592 9.10587C9.07455 8.63724 9.07455 7.87744 8.60592 7.40881L5.21179 4.01469C4.74316 3.54606 3.98336 3.54606 3.51473 4.01469C3.0461 4.48332 3.0461 5.24312 3.51473 5.71175L6.90886 9.10587Z" fill="#EEA91E"/>
</svg>
