<svg width="1920" height="699" viewBox="0 0 1920 699" fill="none" xmlns="http://www.w3.org/2000/svg">
<mask id="path-1-inside-1_401_1042" fill="white">
<path d="M523.637 611.228C523.637 659.427 484.563 698.5 436.363 698.5C388.164 698.5 349.091 659.427 349.091 611.228C349.091 563.028 388.164 523.955 436.363 523.955H349.091V349.409H0V174.863C0.000280457 78.4647 78.1473 0.318359 174.546 0.318359V174.863H349.091V0.318359H523.637V611.228ZM1221.82 523.955L1221.8 526.211C1220.61 620.819 1144.14 697.287 1049.53 698.485L1047.27 698.5H698.182V349.409H872.728V523.955H1047.27V174.863H872.728V349.409C777.082 349.409 699.404 272.479 698.196 177.12L698.182 174.863V0.318359H1221.82V523.955ZM1920 698.5H1745.46V349.409H1570.91C1475.26 349.409 1397.59 272.479 1396.38 177.12L1396.36 174.863V0.318359H1570.91V174.863H1920V698.5ZM1920 87.5908C1920 135.79 1880.93 174.863 1832.73 174.863C1784.53 174.863 1745.46 135.79 1745.46 87.5908C1745.46 39.3915 1784.53 0.318359 1832.73 0.318359H1920V87.5908Z"/>
</mask>
<path d="M523.637 611.228C523.637 659.427 484.563 698.5 436.363 698.5C388.164 698.5 349.091 659.427 349.091 611.228C349.091 563.028 388.164 523.955 436.363 523.955H349.091V349.409H0V174.863C0.000280457 78.4647 78.1473 0.318359 174.546 0.318359V174.863H349.091V0.318359H523.637V611.228ZM1221.82 523.955L1221.8 526.211C1220.61 620.819 1144.14 697.287 1049.53 698.485L1047.27 698.5H698.182V349.409H872.728V523.955H1047.27V174.863H872.728V349.409C777.082 349.409 699.404 272.479 698.196 177.12L698.182 174.863V0.318359H1221.82V523.955ZM1920 698.5H1745.46V349.409H1570.91C1475.26 349.409 1397.59 272.479 1396.38 177.12L1396.36 174.863V0.318359H1570.91V174.863H1920V698.5ZM1920 87.5908C1920 135.79 1880.93 174.863 1832.73 174.863C1784.53 174.863 1745.46 135.79 1745.46 87.5908C1745.46 39.3915 1784.53 0.318359 1832.73 0.318359H1920V87.5908Z" fill="url(#paint0_linear_401_1042)"/>
<path d="M523.637 611.228H524.637H523.637ZM436.363 698.5V699.5V698.5ZM349.091 611.228H348.091H349.091ZM349.091 523.955H348.091V524.955H349.091V523.955ZM349.091 349.409H350.091V348.409H349.091V349.409ZM0 349.409H-1V350.409H0V349.409ZM0 174.863H-1H0ZM174.546 0.318359H175.546V-0.681641H174.546V0.318359ZM174.546 174.863H173.546V175.863H174.546V174.863ZM349.091 174.863V175.863H350.091V174.863H349.091ZM349.091 0.318359V-0.681641H348.091V0.318359H349.091ZM523.637 0.318359H524.637V-0.681641H523.637V0.318359ZM1221.82 523.955L1222.82 523.962V523.955H1221.82ZM1221.8 526.211L1222.8 526.224L1222.8 526.217L1221.8 526.211ZM1049.53 698.485L1049.53 699.485L1049.54 699.485L1049.53 698.485ZM1047.27 698.5V699.5H1047.28L1047.27 698.5ZM698.182 698.5H697.182V699.5H698.182V698.5ZM698.182 349.409V348.409H697.182V349.409H698.182ZM872.728 523.955H871.728V524.955H872.728V523.955ZM1047.27 523.955V524.955H1048.27V523.955H1047.27ZM1047.27 174.863H1048.27V173.863H1047.27V174.863ZM872.728 174.863V173.863H871.728V174.863H872.728ZM698.196 177.12L697.196 177.127L697.196 177.133L698.196 177.12ZM698.182 174.863H697.182V174.87L698.182 174.863ZM698.182 0.318359V-0.681641H697.182V0.318359H698.182ZM1221.82 0.318359H1222.82V-0.681641H1221.82V0.318359ZM1920 698.5V699.5H1921V698.5H1920ZM1745.46 698.5H1744.46V699.5H1745.46V698.5ZM1745.46 349.409H1746.46V348.409H1745.46V349.409ZM1396.38 177.12L1395.38 177.127L1395.38 177.133L1396.38 177.12ZM1396.36 174.863H1395.36V174.87L1396.36 174.863ZM1396.36 0.318359V-0.681641H1395.36V0.318359H1396.36ZM1570.91 0.318359H1571.91V-0.681641H1570.91V0.318359ZM1570.91 174.863H1569.91V175.863H1570.91V174.863ZM1920 174.863H1921V173.863H1920V174.863ZM1832.73 174.863V175.863V174.863ZM1745.46 87.5908H1744.46H1745.46ZM1920 0.318359H1921V-0.681641H1920V0.318359ZM523.637 611.228H522.637C522.637 658.875 484.01 697.5 436.363 697.5V698.5V699.5C485.115 699.5 524.637 659.979 524.637 611.228H523.637ZM436.363 698.5V697.5C388.716 697.5 350.091 658.874 350.091 611.228H349.091H348.091C348.091 659.979 387.612 699.5 436.363 699.5V698.5ZM349.091 611.228H350.091C350.091 563.581 388.716 524.955 436.363 524.955V523.955V522.955C387.612 522.955 348.091 562.476 348.091 611.228H349.091ZM436.363 523.955V522.955H349.091V523.955V524.955H436.363V523.955ZM349.091 523.955H350.091V349.409H349.091H348.091V523.955H349.091ZM349.091 349.409V348.409H0V349.409V350.409H349.091V349.409ZM0 349.409H1V174.863H0H-1V349.409H0ZM0 174.863H1C1.00028 79.017 78.6996 1.31836 174.546 1.31836V0.318359V-0.681641C77.595 -0.681641 -0.999718 77.9125 -1 174.863H0ZM174.546 0.318359H173.546V174.863H174.546H175.546V0.318359H174.546ZM174.546 174.863V175.863H349.091V174.863V173.863H174.546V174.863ZM349.091 174.863H350.091V0.318359H349.091H348.091V174.863H349.091ZM349.091 0.318359V1.31836H523.637V0.318359V-0.681641H349.091V0.318359ZM523.637 0.318359H522.637V611.228H523.637H524.637V0.318359H523.637ZM1221.82 523.955L1220.82 523.949L1220.8 526.204L1221.8 526.211L1222.8 526.217L1222.82 523.962L1221.82 523.955ZM1221.8 526.211L1220.8 526.198C1219.61 620.264 1143.58 696.294 1049.52 697.485L1049.53 698.485L1049.54 699.485C1144.69 698.28 1221.6 621.374 1222.8 526.224L1221.8 526.211ZM1049.53 698.485L1049.52 697.485L1047.27 697.5L1047.27 698.5L1047.28 699.5L1049.53 699.485L1049.53 698.485ZM1047.27 698.5V697.5H698.182V698.5V699.5H1047.27V698.5ZM698.182 698.5H699.182V349.409H698.182H697.182V698.5H698.182ZM698.182 349.409V350.409H872.728V349.409V348.409H698.182V349.409ZM872.728 349.409H871.728V523.955H872.728H873.728V349.409H872.728ZM872.728 523.955V524.955H1047.27V523.955V522.955H872.728V523.955ZM1047.27 523.955H1048.27V174.863H1047.27H1046.27V523.955H1047.27ZM1047.27 174.863V173.863H872.728V174.863V175.863H1047.27V174.863ZM872.728 174.863H871.728V349.409H872.728H873.728V174.863H872.728ZM872.728 349.409V348.409C777.63 348.409 700.397 271.92 699.196 177.107L698.196 177.12L697.196 177.133C698.411 273.038 776.534 350.409 872.728 350.409V349.409ZM698.196 177.12L699.196 177.114L699.182 174.857L698.182 174.863L697.182 174.87L697.196 177.127L698.196 177.12ZM698.182 174.863H699.182V0.318359H698.182H697.182V174.863H698.182ZM698.182 0.318359V1.31836H1221.82V0.318359V-0.681641H698.182V0.318359ZM1221.82 0.318359H1220.82V523.955H1221.82H1222.82V0.318359H1221.82ZM1920 698.5V697.5H1745.46V698.5V699.5H1920V698.5ZM1745.46 698.5H1746.46V349.409H1745.46H1744.46V698.5H1745.46ZM1745.46 349.409V348.409H1570.91V349.409V350.409H1745.46V349.409ZM1570.91 349.409V348.409C1475.81 348.409 1398.58 271.92 1397.38 177.107L1396.38 177.12L1395.38 177.133C1396.59 273.038 1474.72 350.409 1570.91 350.409V349.409ZM1396.38 177.12L1397.38 177.114L1397.36 174.857L1396.36 174.863L1395.36 174.87L1395.38 177.127L1396.38 177.12ZM1396.36 174.863H1397.36V0.318359H1396.36H1395.36V174.863H1396.36ZM1396.36 0.318359V1.31836H1570.91V0.318359V-0.681641H1396.36V0.318359ZM1570.91 0.318359H1569.91V174.863H1570.91H1571.91V0.318359H1570.91ZM1570.91 174.863V175.863H1920V174.863V173.863H1570.91V174.863ZM1920 174.863H1919V698.5H1920H1921V174.863H1920ZM1920 87.5908H1919C1919 135.238 1880.37 173.863 1832.73 173.863V174.863V175.863C1881.48 175.863 1921 136.342 1921 87.5908H1920ZM1832.73 174.863V173.863C1785.08 173.863 1746.46 135.238 1746.46 87.5908H1745.46H1744.46C1744.46 136.342 1783.98 175.863 1832.73 175.863V174.863ZM1745.46 87.5908H1746.46C1746.46 39.9438 1785.08 1.31836 1832.73 1.31836V0.318359V-0.681641C1783.98 -0.681641 1744.46 38.8392 1744.46 87.5908H1745.46ZM1832.73 0.318359V1.31836H1920V0.318359V-0.681641H1832.73V0.318359ZM1920 0.318359H1919V87.5908H1920H1921V0.318359H1920Z" fill="url(#paint1_linear_401_1042)" mask="url(#path-1-inside-1_401_1042)"/>
<defs>
<linearGradient id="paint0_linear_401_1042" x1="1832.73" y1="0.318359" x2="1832.73" y2="698.5" gradientUnits="userSpaceOnUse">
<stop stop-color="#FBE1E1"/>
<stop offset="1" stop-color="white"/>
</linearGradient>
<linearGradient id="paint1_linear_401_1042" x1="1832.73" y1="0.318359" x2="1832.73" y2="698.5" gradientUnits="userSpaceOnUse">
<stop stop-color="#EB8B8B"/>
<stop offset="1" stop-color="white"/>
</linearGradient>
</defs>
</svg>
