<svg width="24" height="24" viewBox="0 0 24 24" fill="none" xmlns="http://www.w3.org/2000/svg">
<g clip-path="url(#clip0_451_610)">
<path d="M20 9.49993C20.3729 9.49994 20.7324 9.63884 21.0084 9.88954C21.2844 10.1402 21.4572 10.4848 21.493 10.8559L21.5 10.9999V14.9999C21.5 16.1567 21.0545 17.269 20.2561 18.106C19.4576 18.9431 18.3675 19.4404 17.212 19.4949L17 19.4999H8.56L8.54 19.8119C8.53648 19.8586 8.53282 19.9053 8.529 19.9519C8.473 20.6709 7.78 21.1219 7.198 20.8169L6.884 20.6489L6.516 20.4399C6.4481 20.4007 6.38043 20.361 6.313 20.3209L5.874 20.0519C5.56131 19.8544 5.25388 19.6486 4.952 19.4349L4.567 19.1549L4.244 18.9099C4.19815 18.8745 4.15248 18.8388 4.107 18.8029C3.618 18.4129 3.637 17.6079 4.157 17.1969L4.293 17.0899L4.613 16.8479L4.993 16.5729L5.431 16.2719C5.66602 16.115 5.90406 15.9626 6.145 15.8149L6.571 15.5599L6.946 15.3489L7.262 15.1789C7.839 14.8789 8.469 15.2639 8.524 15.9349L8.562 16.4999H17C17.3729 16.4999 17.7324 16.361 18.0084 16.1103C18.2844 15.8596 18.4572 15.5151 18.493 15.1439L18.5 14.9999V10.9999C18.5 10.6021 18.658 10.2206 18.9393 9.93926C19.2206 9.65796 19.6022 9.49993 20 9.49993ZM16.802 3.18293L17.116 3.35093L17.484 3.55993C17.55 3.59793 17.618 3.63693 17.687 3.67893L18.126 3.94793C18.4387 4.14546 18.7461 4.3512 19.048 4.56493L19.433 4.84493L19.756 5.08993L19.893 5.19693C20.382 5.58693 20.363 6.39193 19.843 6.80293L19.707 6.90993L19.387 7.15193L19.007 7.42693C18.6312 7.69185 18.247 7.94465 17.855 8.18493L17.429 8.43992L17.054 8.65093L16.738 8.82093C16.161 9.12093 15.531 8.73592 15.477 8.06492L15.437 7.49993H7C6.60218 7.49993 6.22064 7.65796 5.93934 7.93926C5.65804 8.22057 5.5 8.6021 5.5 8.99993V12.9999C5.5 13.3978 5.34196 13.7793 5.06066 14.0606C4.77936 14.3419 4.39782 14.4999 4 14.4999C3.60218 14.4999 3.22064 14.3419 2.93934 14.0606C2.65804 13.7793 2.5 13.3978 2.5 12.9999V8.99993C2.5 7.80645 2.97411 6.66186 3.81802 5.81794C4.66193 4.97403 5.80653 4.49993 7 4.49993H15.44L15.471 4.04793C15.527 3.32893 16.22 2.87793 16.802 3.18293Z" fill="#09244B"/>
</g>
<defs>
<clipPath id="clip0_451_610">
<rect width="24" height="24" fill="white"/>
</clipPath>
</defs>
</svg>
