<svg width="24" height="24" viewBox="0 0 24 24" fill="none" xmlns="http://www.w3.org/2000/svg">
<g clip-path="url(#clip0_450_586)">
<path fill-rule="evenodd" clip-rule="evenodd" d="M18.165 2.7651L18.42 2.7971C19.094 2.8901 19.986 3.01509 20.491 3.52109C20.905 3.93409 21.064 4.60609 21.159 5.20609L21.215 5.5921C21.341 6.5021 21.374 7.69409 21.159 9.01809C20.735 11.6311 19.344 14.7491 15.851 17.1631C15.832 17.3511 15.831 17.5411 15.835 17.7311L15.845 18.0151C15.861 18.4521 15.877 18.8891 15.755 19.3131C15.565 19.9731 14.888 20.4081 14.255 20.7201L13.945 20.8671L13.545 21.0431C12.797 21.3611 11.787 21.6871 11.154 21.0531C10.774 20.6741 10.618 20.1181 10.491 19.5651L10.444 19.3581C10.3911 19.0967 10.3243 18.8384 10.244 18.5841C10.194 18.4381 10.14 18.2891 10.082 18.1391C10.0182 18.2175 9.95046 18.2926 9.87905 18.3641C9.53405 18.7091 9.01905 18.9501 8.59505 19.1191C8.13205 19.3021 7.60805 19.4621 7.12305 19.5941L6.87405 19.6601L6.39705 19.7791L5.96505 19.8791L5.44805 19.9891L5.12505 20.0521C4.96396 20.0819 4.79803 20.0721 4.64157 20.0235C4.48512 19.9749 4.34283 19.889 4.22699 19.7732C4.11115 19.6573 4.02522 19.515 3.97663 19.3586C3.92803 19.2021 3.91822 19.0362 3.94805 18.8751L4.03405 18.4441L4.18805 17.7461L4.31205 17.2361L4.40605 16.8761C4.53805 16.3921 4.69805 15.8681 4.88205 15.4061C5.05005 14.9811 5.29105 14.4661 5.63605 14.1211L5.71605 14.0441L5.65205 14.0181C5.48115 13.9531 5.30804 13.8941 5.13305 13.8411L4.85605 13.7561C4.16205 13.5461 3.42005 13.3201 2.95905 12.8581C2.39905 12.2991 2.58805 11.4481 2.85805 10.7401L2.96805 10.4661L3.14505 10.0661L3.29205 9.75609C3.60405 9.12409 4.03905 8.44709 4.69905 8.25709C5.04905 8.15709 5.41305 8.1511 5.77905 8.1611L5.99905 8.1681C6.28505 8.1781 6.57005 8.18909 6.84905 8.16209C9.26305 4.66809 12.381 3.2771 14.994 2.8531C16.0423 2.68117 17.1089 2.65157 18.165 2.7651ZM8.35305 15.4401C8.19566 15.3236 8.00756 15.2558 7.81204 15.2452C7.61653 15.2345 7.42217 15.2814 7.25305 15.3801L7.14305 15.4541L7.05005 15.5371L6.92505 15.6951C6.66505 16.0711 6.51705 16.5911 6.40205 17.0771L6.29405 17.5451L6.24305 17.7581L6.43405 17.7121L6.85205 17.6161C7.43005 17.4811 8.07105 17.3061 8.46505 16.9511C8.63636 16.7799 8.7397 16.5523 8.75589 16.3106C8.77207 16.069 8.7 15.8296 8.55305 15.6371L8.47105 15.5431L8.44705 15.5201L8.35305 15.4401ZM15.536 8.46609C15.3504 8.28034 15.1299 8.13298 14.8873 8.03242C14.6446 7.93187 14.3846 7.88009 14.1219 7.88004C13.8593 7.88 13.5992 7.93168 13.3565 8.03215C13.1138 8.13262 12.8933 8.27991 12.7075 8.46559C12.5218 8.65128 12.3744 8.87174 12.2739 9.11438C12.1733 9.35702 12.1215 9.61709 12.1215 9.87974C12.1214 10.1424 12.1731 10.4025 12.2736 10.6452C12.3741 10.8878 12.5214 11.1083 12.707 11.2941C13.0821 11.6692 13.5907 11.8801 14.1212 11.8801C14.6516 11.8802 15.1604 11.6696 15.5355 11.2946C15.9107 10.9196 16.1215 10.4109 16.1216 9.88045C16.1217 9.35 15.9111 8.84124 15.536 8.46609Z" fill="#09244B"/>
</g>
<defs>
<clipPath id="clip0_450_586">
<rect width="24" height="24" fill="white"/>
</clipPath>
</defs>
</svg>
