<svg width="24" height="24" viewBox="0 0 24 24" fill="none" xmlns="http://www.w3.org/2000/svg">
<g clip-path="url(#clip0_449_529)">
<path fill-rule="evenodd" clip-rule="evenodd" d="M15.9701 5.38005C15.4631 5.54005 14.7801 5.84005 13.9301 6.31205C11.9601 7.40405 9.27306 9.53005 6.11006 13.0091C5.84246 13.3034 5.46887 13.4795 5.07148 13.4984C4.67409 13.5174 4.28545 13.3777 3.99106 13.1101C3.69667 12.8425 3.52064 12.4689 3.5017 12.0715C3.48276 11.6741 3.62246 11.2854 3.89006 10.9911C7.18806 7.36305 10.1261 4.99105 12.4761 3.68805C13.6521 3.03605 14.7671 2.54705 15.7211 2.34505C16.5201 2.17505 18.0091 2.06105 18.7931 3.34205C19.1421 3.91205 19.1831 4.54205 19.1281 5.05905C19.0731 5.58505 18.9061 6.13705 18.6761 6.69605C18.2161 7.81605 17.3991 9.20205 16.2261 10.8651C15.1351 12.4111 14.4601 13.5361 14.0761 14.3291C15.0861 13.8641 16.0071 13.0831 17.1301 12.9091C17.4501 12.8591 17.9131 12.8491 18.3781 13.0821C18.8881 13.3381 19.1721 13.7711 19.3011 14.1671C19.6051 15.0971 19.2191 16.1131 18.9351 17.0011C19.2781 16.9862 19.6159 17.0896 19.892 17.2939C20.168 17.4981 20.3656 17.7909 20.4518 18.1234C20.5379 18.4558 20.5074 18.8077 20.3653 19.1203C20.2232 19.433 19.9782 19.6874 19.6711 19.8411C18.6821 20.3361 17.4011 20.7871 16.4071 20.0571C16.0521 19.7934 15.7964 19.4179 15.6811 18.9911C15.4771 18.2661 15.6531 17.5021 15.8581 16.7971C15.0061 17.2371 14.0601 17.6561 13.0881 17.6961C12.6551 17.7131 12.0131 17.6521 11.4621 17.2051C10.8581 16.7151 10.6741 16.0231 10.6751 15.4391C10.6751 14.8871 10.8331 14.3121 11.0541 13.7511C11.4991 12.6181 12.3801 11.1111 13.7741 9.13505C14.6011 7.96505 15.4621 6.73005 15.9701 5.38005Z" fill="#09244B"/>
</g>
<defs>
<clipPath id="clip0_449_529">
<rect width="24" height="24" fill="white"/>
</clipPath>
</defs>
</svg>
