<svg width="24" height="24" viewBox="0 0 24 24" fill="none" xmlns="http://www.w3.org/2000/svg">
<g clip-path="url(#clip0_449_506)">
<path d="M13.9999 6.24C14.3349 6.24 14.5879 6.381 14.7769 6.582C15.0819 6.906 15.2109 7.383 15.4009 7.778C16.3749 9.80617 17.9125 11.5108 19.8299 12.688L20.2639 12.945C20.6569 13.184 20.9989 13.463 20.9999 13.998C21.0009 14.73 20.3639 14.984 19.8299 15.311C17.9126 16.4882 16.3749 18.1929 15.4009 20.221C15.2109 20.617 15.0809 21.094 14.7769 21.418C14.5889 21.619 14.3349 21.76 13.9999 21.76C13.6649 21.76 13.4109 21.619 13.2229 21.418C13.0469 21.231 12.9309 20.996 12.8279 20.756L12.6779 20.396C12.6528 20.3374 12.6265 20.2794 12.5989 20.222C11.6249 18.1938 10.0873 16.4892 8.16991 15.312L7.84891 15.121C7.41591 14.861 6.99891 14.565 6.99991 13.998C7.00191 13.268 7.63691 13.016 8.16991 12.689C10.0873 11.5118 11.6249 9.80717 12.5989 7.779C12.7889 7.383 12.9189 6.906 13.2229 6.582C13.4109 6.382 13.6649 6.24 13.9999 6.24ZM6.74691 5.825C6.89591 6.008 6.98491 6.215 7.08691 6.426C7.36091 6.996 7.77491 7.486 8.28791 7.848L8.48591 7.978C9.34191 8.503 9.37391 9.388 8.60591 9.942L8.48591 10.022C7.87978 10.394 7.39372 10.9329 7.08591 11.574L6.97191 11.816C6.87491 12.016 6.76191 12.207 6.56591 12.334C6.25091 12.536 5.74891 12.536 5.43391 12.334C5.16891 12.164 5.04391 11.846 4.91391 11.574C4.60605 10.9329 4.12 10.3941 3.51391 10.022C3.33591 9.912 3.16591 9.809 3.01891 9.655C2.87519 9.46646 2.79743 9.2359 2.79761 8.99883C2.79779 8.76176 2.8759 8.53132 3.01991 8.343C3.16991 8.187 3.32991 8.091 3.51491 7.978C4.12066 7.60582 4.60637 7.067 4.91391 6.426C5.01791 6.21 5.10091 6.012 5.25391 5.826C5.45382 5.63168 5.72162 5.52297 6.00041 5.52297C6.2792 5.52297 6.547 5.63168 6.74691 5.826V5.825ZM9.99991 2C10.2651 2 10.5195 2.10536 10.707 2.29289C10.8946 2.48043 10.9999 2.73478 10.9999 3C11.2651 3 11.5195 3.10536 11.707 3.29289C11.8946 3.48043 11.9999 3.73478 11.9999 4C11.9999 4.26522 11.8946 4.51957 11.707 4.70711C11.5195 4.89464 11.2651 5 10.9999 5C10.9999 5.26522 10.8946 5.51957 10.707 5.70711C10.5195 5.89464 10.2651 6 9.99991 6C9.73469 6 9.48034 5.89464 9.2928 5.70711C9.10526 5.51957 8.99991 5.26522 8.99991 5C8.73469 5 8.48034 4.89464 8.2928 4.70711C8.10526 4.51957 7.99991 4.26522 7.99991 4C7.99991 3.73478 8.10526 3.48043 8.2928 3.29289C8.48034 3.10536 8.73469 3 8.99991 3C8.99991 2.73478 9.10526 2.48043 9.2928 2.29289C9.48034 2.10536 9.73469 2 9.99991 2Z" fill="#09244B"/>
</g>
<defs>
<clipPath id="clip0_449_506">
<rect width="24" height="24" fill="white"/>
</clipPath>
</defs>
</svg>
