<svg width="24" height="25" viewBox="0 0 24 25" fill="none" xmlns="http://www.w3.org/2000/svg">
<g clip-path="url(#clip0_449_553)">
<path d="M16 7.5C16 8.56087 15.5786 9.57828 14.8284 10.3284C14.0783 11.0786 13.0609 11.5 12 11.5C10.9391 11.5 9.92172 11.0786 9.17157 10.3284C8.42143 9.57828 8 8.56087 8 7.5C8 6.43913 8.42143 5.42172 9.17157 4.67157C9.92172 3.92143 10.9391 3.5 12 3.5C13.0609 3.5 14.0783 3.92143 14.8284 4.67157C15.5786 5.42172 16 6.43913 16 7.5ZM11 16.5C11 17.5609 10.5786 18.5783 9.82843 19.3284C9.07828 20.0786 8.06087 20.5 7 20.5C5.93913 20.5 4.92172 20.0786 4.17157 19.3284C3.42143 18.5783 3 17.5609 3 16.5C3 15.4391 3.42143 14.4217 4.17157 13.6716C4.92172 12.9214 5.93913 12.5 7 12.5C8.06087 12.5 9.07828 12.9214 9.82843 13.6716C10.5786 14.4217 11 15.4391 11 16.5ZM21 16.5C21 17.5609 20.5786 18.5783 19.8284 19.3284C19.0783 20.0786 18.0609 20.5 17 20.5C15.9391 20.5 14.9217 20.0786 14.1716 19.3284C13.4214 18.5783 13 17.5609 13 16.5C13 15.4391 13.4214 14.4217 14.1716 13.6716C14.9217 12.9214 15.9391 12.5 17 12.5C18.0609 12.5 19.0783 12.9214 19.8284 13.6716C20.5786 14.4217 21 15.4391 21 16.5Z" fill="#09244B"/>
</g>
<defs>
<clipPath id="clip0_449_553">
<rect width="24" height="24" fill="white" transform="translate(0 0.5)"/>
</clipPath>
</defs>
</svg>
