<svg width="24" height="24" viewBox="0 0 24 24" fill="none" xmlns="http://www.w3.org/2000/svg">
<g clip-path="url(#clip0_451_614)">
<path fill-rule="evenodd" clip-rule="evenodd" d="M11.4631 2.89089C11.5067 3.08302 11.5121 3.28186 11.4788 3.47605C11.4456 3.67024 11.3745 3.85599 11.2694 4.02267C11.1644 4.18936 11.0276 4.33373 10.8667 4.44752C10.7059 4.56132 10.5242 4.64232 10.3321 4.68589C10.1471 4.72789 9.9651 4.77589 9.7861 4.83189C9.59785 4.89007 9.39999 4.9106 9.20381 4.8923C9.00762 4.87401 8.81696 4.81725 8.64271 4.72528C8.46846 4.6333 8.31404 4.50791 8.18825 4.35625C8.06246 4.20459 7.96778 4.02964 7.9096 3.84139C7.85143 3.65314 7.8309 3.45528 7.84919 3.25909C7.86749 3.06291 7.92424 2.87225 8.01622 2.698C8.10819 2.52375 8.23359 2.36933 8.38525 2.24354C8.53691 2.11775 8.71185 2.02307 8.9001 1.96489C9.1521 1.88689 9.4081 1.81889 9.6671 1.75989C9.85923 1.71627 10.0581 1.71092 10.2523 1.74415C10.4465 1.77738 10.6322 1.84854 10.7989 1.95357C10.9656 2.05859 11.1099 2.19543 11.2237 2.35626C11.3375 2.51709 11.4185 2.69876 11.4621 2.89089M12.5361 2.89089C12.6243 2.50304 12.863 2.16611 13.1996 1.9542C13.5362 1.74229 13.9432 1.67276 14.3311 1.76089C19.0081 2.81989 22.5001 6.99989 22.5001 11.9999C22.5001 17.7989 17.7991 22.4999 12.0001 22.4999C7.0011 22.4999 2.8211 19.0079 1.7601 14.3319C1.67205 13.9439 1.74174 13.5368 1.95385 13.2002C2.16595 12.8635 2.50309 12.6249 2.8911 12.5369C3.27912 12.4488 3.68621 12.5185 4.02284 12.7306C4.35947 12.9427 4.59805 13.2799 4.6861 13.6679C4.98458 14.9744 5.6277 16.1771 6.54855 17.1508C7.4694 18.1245 8.63434 18.8337 9.92218 19.2046C11.21 19.5755 12.5737 19.5945 13.8714 19.2597C15.1691 18.9249 16.3534 18.2485 17.301 17.3008C18.2487 16.3532 18.9251 15.1689 19.2599 13.8712C19.5947 12.5735 19.5757 11.2098 19.2048 9.92198C18.8339 8.63413 18.1247 7.46919 17.151 6.54834C16.1773 5.62749 14.9746 4.98437 13.6681 4.68589C13.2802 4.59766 12.9433 4.359 12.7314 4.02238C12.5195 3.68577 12.45 3.27877 12.5381 2.89089M6.9801 4.38089C7.25035 4.67257 7.39373 5.05961 7.37873 5.45695C7.36372 5.8543 7.19157 6.22942 6.9001 6.49989C6.76182 6.62819 6.6284 6.76161 6.5001 6.89989C6.36616 7.04435 6.20507 7.161 6.02603 7.2432C5.847 7.3254 5.65353 7.37153 5.45667 7.37896C5.25981 7.38639 5.06342 7.35497 4.8787 7.2865C4.69398 7.21803 4.52456 7.11384 4.3801 6.97989C4.23565 6.84594 4.11899 6.68486 4.03679 6.50582C3.9546 6.32679 3.90847 6.13332 3.90104 5.93646C3.89361 5.7396 3.92503 5.54321 3.9935 5.35849C4.06197 5.17377 4.16616 5.00435 4.3001 4.85989C4.4801 4.66589 4.6671 4.47989 4.8601 4.29989C5.00455 4.16593 5.17397 4.06173 5.35869 3.99325C5.54341 3.92477 5.73981 3.89334 5.93667 3.90077C6.13354 3.9082 6.32701 3.95434 6.50605 4.03654C6.68508 4.11875 6.84616 4.23642 6.9801 4.38089ZM12.0001 5.49989C12.3979 5.49989 12.7795 5.65793 13.0608 5.93923C13.3421 6.22054 13.5001 6.60207 13.5001 6.99989V11.3789L16.0601 13.9389C16.2034 14.0772 16.3178 14.2427 16.3965 14.4256C16.4752 14.6086 16.5167 14.8054 16.5185 15.0046C16.5203 15.2037 16.4824 15.4013 16.4071 15.5857C16.3318 15.77 16.2205 15.9376 16.0797 16.0785C15.9389 16.2194 15.7715 16.3308 15.5872 16.4063C15.4029 16.4818 15.2054 16.5199 15.0062 16.5183C14.807 16.5166 14.6102 16.4753 14.4272 16.3968C14.2441 16.3183 14.0785 16.2041 13.9401 16.0609L10.9401 13.0609C10.8007 12.9216 10.69 12.7562 10.6145 12.5742C10.539 12.3921 10.5001 12.197 10.5001 11.9999V6.99989C10.5001 6.60207 10.6581 6.22054 10.9394 5.93923C11.2207 5.65793 11.6023 5.49989 12.0001 5.49989ZM3.8401 7.90989C4.02846 7.96787 4.20355 8.0624 4.35536 8.18808C4.50717 8.31375 4.63272 8.46811 4.72485 8.64233C4.81697 8.81655 4.87386 9.00722 4.89227 9.20344C4.91067 9.39966 4.89023 9.59758 4.8321 9.78589C4.7771 9.96489 4.7281 10.1469 4.6861 10.3319C4.59805 10.7199 4.35947 11.057 4.02284 11.2691C3.68621 11.4813 3.27912 11.5509 2.8911 11.4629C2.50309 11.3748 2.16595 11.1363 1.95385 10.7996C1.74174 10.463 1.67205 10.0559 1.7601 9.66789C1.8191 9.40789 1.8871 9.15289 1.9651 8.90089C2.02319 8.71262 2.11779 8.53764 2.24351 8.38594C2.36923 8.23424 2.5236 8.1088 2.69781 8.01677C2.87202 7.92474 3.06266 7.86794 3.25883 7.8496C3.45499 7.83126 3.65285 7.85175 3.8411 7.90989" fill="#09244B"/>
</g>
<defs>
<clipPath id="clip0_451_614">
<rect width="24" height="24" fill="white"/>
</clipPath>
</defs>
</svg>
