<svg width="24" height="25" viewBox="0 0 24 25" fill="none" xmlns="http://www.w3.org/2000/svg">
<g clip-path="url(#clip0_449_545)">
<path d="M19 4.5C19.5304 4.5 20.0391 4.71071 20.4142 5.08579C20.7893 5.46086 21 5.96957 21 6.5V18.5C21 19.0304 20.7893 19.5391 20.4142 19.9142C20.0391 20.2893 19.5304 20.5 19 20.5H5C4.46957 20.5 3.96086 20.2893 3.58579 19.9142C3.21071 19.5391 3 19.0304 3 18.5V6.5C3 5.96957 3.21071 5.46086 3.58579 5.08579C3.96086 4.71071 4.46957 4.5 5 4.5H19ZM19 10.5H5V17.5C5.00003 17.7449 5.08996 17.9813 5.25272 18.1644C5.41547 18.3474 5.63975 18.4643 5.883 18.493L6 18.5H18C18.2449 18.5 18.4813 18.41 18.6644 18.2473C18.8474 18.0845 18.9643 17.8603 18.993 17.617L19 17.5V10.5ZM6 6.5C5.73478 6.5 5.48043 6.60536 5.29289 6.79289C5.10536 6.98043 5 7.23478 5 7.5C5 7.76522 5.10536 8.01957 5.29289 8.20711C5.48043 8.39464 5.73478 8.5 6 8.5C6.26522 8.5 6.51957 8.39464 6.70711 8.20711C6.89464 8.01957 7 7.76522 7 7.5C7 7.23478 6.89464 6.98043 6.70711 6.79289C6.51957 6.60536 6.26522 6.5 6 6.5ZM9 6.5C8.73478 6.5 8.48043 6.60536 8.29289 6.79289C8.10536 6.98043 8 7.23478 8 7.5C8 7.76522 8.10536 8.01957 8.29289 8.20711C8.48043 8.39464 8.73478 8.5 9 8.5C9.26522 8.5 9.51957 8.39464 9.70711 8.20711C9.89464 8.01957 10 7.76522 10 7.5C10 7.23478 9.89464 6.98043 9.70711 6.79289C9.51957 6.60536 9.26522 6.5 9 6.5ZM12 6.5C11.7348 6.5 11.4804 6.60536 11.2929 6.79289C11.1054 6.98043 11 7.23478 11 7.5C11 7.76522 11.1054 8.01957 11.2929 8.20711C11.4804 8.39464 11.7348 8.5 12 8.5C12.2652 8.5 12.5196 8.39464 12.7071 8.20711C12.8946 8.01957 13 7.76522 13 7.5C13 7.23478 12.8946 6.98043 12.7071 6.79289C12.5196 6.60536 12.2652 6.5 12 6.5Z" fill="#09244B"/>
</g>
<defs>
<clipPath id="clip0_449_545">
<rect width="24" height="24" fill="white" transform="translate(0 0.5)"/>
</clipPath>
</defs>
</svg>
