<svg width="1065" height="662" viewBox="0 0 1065 662" fill="none" xmlns="http://www.w3.org/2000/svg">
<path d="M277.207 154.782C277.207 154.782 307.977 82.9172 247.366 58.6728C203.027 40.9371 127.444 55.6172 82.7841 105.297C38.2991 154.781 16.0188 219.851 29.633 288.295C46.6507 373.85 104.698 442.153 287.23 393.431M287.23 393.431C287.23 393.431 299.17 284.78 296.634 281.311C292.386 275.501 213.098 278.97 213.098 278.97M287.23 393.431C276.259 465.55 244.831 640.17 187.256 636.343C122.228 632.022 133.28 529.137 239.633 461.284C345.985 393.431 404.472 374.557 465.281 278.97C514.71 201.272 549.962 125.709 535.941 54.0003C530.154 24.4017 494.104 15.7168 473.046 36.7742C455.42 54.4009 442.218 77.946 423.201 144.725C389.885 261.72 402.646 393.112 461.213 410.303C521.614 418.955 556.297 307.81 561.31 307.81C566.323 307.81 551.652 412.323 616.153 414.512C668.485 416.288 718.655 357.96 683.89 268.188C670.367 233.27 628.55 220.641 604.141 245.846C584.451 266.178 590.173 285.44 604.141 293.376C645.777 317.034 690.891 327.086 740.396 307.81C788.073 289.245 787.687 245.846 792.028 245.846C796.369 245.846 779.553 412.024 813.408 416.882C830.354 419.314 899.894 250.053 904.308 250.761C908.722 251.47 910.574 425.084 931.571 416.882C958.223 406.472 1031.59 278.303 1039.68 248.657" stroke="#FADCA6" stroke-width="50" stroke-linecap="round"/>
</svg>
