<svg width="22" height="22" viewBox="0 0 22 22" fill="none" xmlns="http://www.w3.org/2000/svg">
<path d="M12.4332 2.60002C12.4332 1.80841 11.7914 1.16669 10.9998 1.16669C10.2082 1.16669 9.5665 1.80841 9.5665 2.60002V7.26669C9.5665 8.53694 8.53676 9.56669 7.2665 9.56669H2.59984C1.80823 9.56669 1.1665 10.2084 1.1665 11C1.1665 11.7916 1.80823 12.4334 2.59984 12.4334H7.2665C7.35403 12.4334 7.44033 12.4382 7.52518 12.4477L4.04667 15.9262C3.48692 16.486 3.48692 17.3935 4.04667 17.9532C4.60642 18.513 5.51396 18.513 6.07371 17.9532L9.55217 14.4748C9.56164 14.5596 9.5665 14.6459 9.5665 14.7334V19.4C9.5665 20.1916 10.2082 20.8334 10.9998 20.8334C11.7914 20.8334 12.4332 20.1916 12.4332 19.4V14.7334C12.4332 13.4631 13.4629 12.4334 14.7332 12.4334H19.3998C20.1914 12.4334 20.8332 11.7916 20.8332 11C20.8332 10.2084 20.1914 9.56669 19.3998 9.56669H14.7332C14.6457 9.56669 14.5594 9.56182 14.4746 9.55236L17.9531 6.07385C18.5129 5.5141 18.5129 4.60656 17.9531 4.04681C17.3933 3.48706 16.4858 3.48706 15.9261 4.04681L12.4475 7.52536C12.438 7.44052 12.4332 7.35421 12.4332 7.26669V2.60002ZM15.3132 13.2863C14.7535 12.7266 13.8459 12.7266 13.2862 13.2863C12.7264 13.8461 12.7264 14.7536 13.2862 15.3134L15.9261 17.9532C16.4858 18.513 17.3933 18.513 17.9531 17.9532C18.5129 17.3935 18.5129 16.4859 17.9531 15.9262L15.3132 13.2863ZM6.68651 8.7137C7.24626 9.27345 8.1538 9.27345 8.71355 8.7137C9.2733 8.15394 9.2733 7.24641 8.71355 6.68666L6.07367 4.04678C5.51392 3.48703 4.60638 3.48703 4.04663 4.04678C3.48688 4.60653 3.48688 5.51407 4.04663 6.07382L6.68651 8.7137Z" stroke="white" stroke-linecap="round"/>
</svg>
